<?xml version="1.0" encoding="utf-8"?>
<!-- Generator: Adobe Illustrator 16.0.0, SVG Export Plug-In . SVG Version: 6.00 Build 0)  -->
<!DOCTYPE svg PUBLIC "-//W3C//DTD SVG 1.1//EN" "http://www.w3.org/Graphics/SVG/1.1/DTD/svg11.dtd">
<svg version="1.1" id="Layer_1" xmlns="http://www.w3.org/2000/svg" xmlns:xlink="http://www.w3.org/1999/xlink" x="0px" y="0px"
	 width="128.645px" height="75.351px" viewBox="0 0 128.645 75.351" enable-background="new 0 0 128.645 75.351"
	 xml:space="preserve">
<g>
	<path fill="#FD551F" stroke="#FD551F" stroke-miterlimit="10" d="M128.329,44.38"/>
	<path fill="#FD551F" stroke="#FD551F" stroke-miterlimit="10" d="M0.905,56.775c0.729-5.645,2.094-11.127,4.247-16.4
		c2.306-5.647,5.354-10.861,9.147-15.644c2.989-3.769,6.347-7.171,10.094-10.177c3.73-2.992,7.751-5.539,12.056-7.639
		c6.204-3.026,12.731-4.977,19.563-5.88c4.451-0.589,8.923-0.685,13.408-0.322c4.646,0.375,9.194,1.232,13.646,2.604
		c6.171,1.9,11.918,4.682,17.247,8.333c5.088,3.486,9.584,7.614,13.479,12.391c3.379,4.144,6.195,8.644,8.452,13.496
		c2.601,5.59,4.331,11.44,5.234,17.53c0.276,1.861,0.413,3.744,0.529,5.623c0.104,1.676,0.077,3.357,0.137,5.037
		c0.021,0.57-0.197,0.734-0.755,0.732c-3.928-0.021-7.854-0.023-11.782-0.004c-0.563,0.004-0.762-0.17-0.739-0.736
		c0.037-0.965,0.027-1.934,0.001-2.898c-0.014-0.488,0.177-0.645,0.651-0.641c2.117,0.016,4.235,0.006,6.354,0.004
		c0.805,0,0.818-0.004,0.781-0.832c-0.271-5.955-1.414-11.736-3.563-17.299c-0.79-2.047-2.946-6.698-3.145-7.076
		c-1.111,0.638-5.269,3.027-6.273,3.628c-0.372,0.223-0.564,0.139-0.769-0.236c-0.49-0.902-1.006-1.793-1.556-2.66
		c-0.274-0.433-0.156-0.623,0.247-0.852c1.949-1.103,6.021-3.487,6.114-3.552c-1.323-4.117-13.172-16.011-18.386-18.425
		c-1.277,2.196-2.56,4.403-3.885,6.682c-1.226-0.721-2.399-1.41-3.638-2.138c1.307-2.283,2.567-4.486,3.862-6.749
		C83.77,8.493,75.419,6.273,66.479,5.903c-0.014,0.252-0.051,4.999-0.029,7.158c0.006,0.512-0.164,0.688-0.672,0.673
		c-0.986-0.029-1.974-0.027-2.96-0.002c-0.489,0.013-0.633-0.175-0.629-0.649c0.02-2.139,0.006-6.987,0.006-7.195
		c-7.912,0.22-21.41,3.768-25.186,6.854c0.407,0.717,2.808,4.867,3.568,6.229c0.09,0.161,0.093,0.548-0.001,0.606
		c-1.094,0.678-2.214,1.312-3.374,1.983c-1.319-2.266-2.606-4.475-3.888-6.676c-5.103,2.289-16.243,13.432-18.425,18.422
		c2.191,1.271,4.389,2.547,6.649,3.858c-0.225,0.422-0.423,0.817-0.643,1.202c-0.377,0.658-0.796,1.297-1.142,1.971
		c-0.231,0.451-0.458,0.461-0.864,0.221c-1.963-1.158-6.065-3.491-6.227-3.549c-4.139,7.866-6.396,16.209-6.73,25.174
		c0.304,0,4.979,0.02,7.097-0.008c0.569-0.008,0.761,0.178,0.74,0.742c-0.036,0.984-0.024,1.973-0.006,2.959
		c0.008,0.43-0.158,0.574-0.581,0.572c-4.03-0.008-8.06-0.008-12.09,0.004c-0.421,0-0.607-0.15-0.593-0.572
		c0.073-2.195,0.149-4.391,0.203-6.586"/>
	<path fill="#FD551F" stroke="#FD551F" stroke-miterlimit="10" d="M64.307,74.851c-5.302-0.031-9.784-4.02-10.396-9.283
		c-0.649-5.58,3.097-10.646,8.635-11.582c0.885-0.15,1.505-0.396,2.061-1.166c2.201-3.045,4.495-6.023,6.75-9.031
		c2.379-3.172,4.754-6.346,7.126-9.523c2.828-3.785,5.653-7.571,8.474-11.362c0.302-0.405,0.636-0.703,1.181-0.606
		c0.743,0.131,1.102,0.818,0.785,1.556c-2.184,5.097-4.375,10.19-6.563,15.286c-1.442,3.357-2.883,6.719-4.32,10.078
		c-1.374,3.209-2.736,6.422-4.121,9.627c-0.193,0.447-0.195,0.816,0.006,1.281c2.715,6.266-1.06,13.301-7.784,14.521
		C65.537,74.757,64.919,74.785,64.307,74.851z"/>
</g>
</svg>
