<?xml version="1.0" encoding="utf-8"?>
<!-- Generator: Adobe Illustrator 16.0.0, SVG Export Plug-In . SVG Version: 6.00 Build 0)  -->
<!DOCTYPE svg PUBLIC "-//W3C//DTD SVG 1.1//EN" "http://www.w3.org/Graphics/SVG/1.1/DTD/svg11.dtd">
<svg version="1.1" id="Layer_1" xmlns="http://www.w3.org/2000/svg" xmlns:xlink="http://www.w3.org/1999/xlink" x="0px" y="0px"
	 width="190.743px" height="92.893px" viewBox="0 0 190.743 92.893" enable-background="new 0 0 190.743 92.893"
	 xml:space="preserve">
<g>
	<polygon fill="none" stroke="#FD551F" stroke-width="6" stroke-miterlimit="10" points="95.271,69.17 119.72,82.022 115.05,54.799 
		134.828,35.519 107.494,31.547 95.27,6.779 83.046,31.548 55.712,35.521 75.491,54.799 70.822,82.024 	"/>
	<polygon fill="none" stroke="#FD551F" stroke-width="6" stroke-miterlimit="10" points="33.656,78.567 50.474,87.409 
		47.261,68.682 60.866,55.422 42.064,52.69 33.655,35.652 25.248,52.69 6.446,55.422 20.052,68.684 16.84,87.409 	"/>
	<polygon fill="none" stroke="#FD551F" stroke-width="6" stroke-miterlimit="10" points="157.087,78.567 173.903,87.409 
		170.691,68.682 184.296,55.422 165.495,52.69 157.086,35.652 148.679,52.69 129.877,55.422 143.482,68.684 140.271,87.409 	"/>
</g>
</svg>
