<?xml version="1.0" encoding="utf-8"?>
<!-- Generator: Adobe Illustrator 16.0.0, SVG Export Plug-In . SVG Version: 6.00 Build 0)  -->
<!DOCTYPE svg PUBLIC "-//W3C//DTD SVG 1.1//EN" "http://www.w3.org/Graphics/SVG/1.1/DTD/svg11.dtd">
<svg version="1.1" id="Layer_1" xmlns="http://www.w3.org/2000/svg" xmlns:xlink="http://www.w3.org/1999/xlink" x="0px" y="0px"
	viewBox="0 0 97.464 86.796" enable-background="new 0 0 97.464 86.796" xml:space="preserve">
<g>
	<path fill="none" stroke="#FD551F" stroke-width="6" stroke-miterlimit="10" d="M3.003,35.894
		c-0.021-4.351-0.021-4.351,1.958-4.351h19.562h4.148c2.62,0,2.61,0,2.61,4.351v46.333c0,1.889,0.314,1.564-2.61,1.523H4.962
		C3,83.797,3,83.797,3.003,82.227V35.894z"/>
	<path fill="none" stroke="#FD551F" stroke-width="6" stroke-linecap="round" stroke-linejoin="bevel" stroke-miterlimit="10" d="
		M66.087,31.543h23.176c3.571,5.257,2.708,0.183,5.25,7.613l-6.455,35.458c-8.074,4.037,2.06-1.031-9.57,4.785h-3.699"/>
	<path fill="none" stroke="#FD551F" stroke-width="6" stroke-linecap="round" stroke-miterlimit="10" d="M32.588,39.156l5.003-1.957
		l10.441-18.708c0,0-0.007-9.747-0.083-12.979c-0.063-2.673,15.058-5.272,17.049,3.843c2.889,13.22,1.088,22.188,1.088,22.188"/>
	<path fill="none" stroke="#FD551F" stroke-width="6" stroke-linecap="round" stroke-miterlimit="10" d="M79.14,79.399H49.99h-2.393
		c-5.003,0-15.01-5.873-15.01-5.873"/>
</g>
</svg>
