<?xml version="1.0" encoding="utf-8"?>
<!-- Generator: Adobe Illustrator 18.0.0, SVG Export Plug-In . SVG Version: 6.00 Build 0)  -->
<!DOCTYPE svg PUBLIC "-//W3C//DTD SVG 1.1//EN" "http://www.w3.org/Graphics/SVG/1.1/DTD/svg11.dtd">
<svg version="1.1" id="Layer_1" xmlns="http://www.w3.org/2000/svg" xmlns:xlink="http://www.w3.org/1999/xlink" x="0px" y="0px"
	 viewBox="0 0 73.7 54.9" enable-background="new 0 0 73.7 54.9" xml:space="preserve">
<g>
	<path fill-rule="evenodd" clip-rule="evenodd" d="M45,41.4c-0.3,0-0.6,0-0.9,0c-13.5,0-27.1,0-40.6,0c-1.7,0-3-0.8-3.4-2.3
		C0,38.7,0,38.3,0,38C0,26.5,0,15,0,3.6C0,1.3,1.3,0,3.6,0c17.9,0,35.7,0,53.6,0c2.2,0,3.5,1.3,3.5,3.6c0,7.3,0,14.6,0,21.9
		c0,0.6,0.1,0.9,0.8,1c6.1,0.8,11.2,6,12.1,12.1c1,7.7-3.8,14.5-11.3,16.2c-7.9,1.7-16-3.8-17.1-11.8C45.1,42.4,45,41.9,45,41.4z
		 M2.4,15.5c0,0.3,0,0.5,0,0.7c0,6.8,0,13.6,0,20.4c0,0.3,0,0.6,0.1,0.9c0.1,1,0.6,1.5,1.6,1.5c0.3,0,0.5,0,0.8,0
		c13.2,0,26.3,0,39.5,0c0.2,0,0.5,0,0.6,0c1.4-7.5,5.8-11.8,13.3-12.9c0-3.5,0-7.1,0-10.7C39.6,15.5,21.1,15.5,2.4,15.5z M71.3,40.7
		c0-6.5-5.3-11.8-11.9-11.8c-6.5,0-11.8,5.4-11.7,11.9c0,6.5,5.3,11.7,11.9,11.7C66,52.5,71.3,47.2,71.3,40.7z M58.3,6.7
		c0-0.7,0-1.4,0-2.1c0-0.2,0-0.5-0.1-0.7c-0.2-1-0.7-1.4-1.7-1.5c-0.2,0-0.5,0-0.7,0c-17,0-34,0-51,0c-0.3,0-0.6,0-1,0
		C3.3,2.5,2.6,2.8,2.5,3.6c-0.1,1-0.1,2.1-0.2,3.2C21.1,6.7,39.6,6.7,58.3,6.7z"/>
	<path fill-rule="evenodd" clip-rule="evenodd" d="M57.3,42.9c0.1-0.1,0.2-0.3,0.4-0.5c2.1-2.2,4.2-4.3,6.3-6.5
		c0.8-0.8,1.7-0.9,2.4-0.2c0.8,0.7,0.8,1.7,0,2.5c-2.6,2.7-5.3,5.4-7.9,8.2c-0.8,0.8-1.7,0.8-2.5,0c-1.1-1.1-2.2-2.2-3.3-3.3
		c-0.8-0.8-0.8-1.7-0.1-2.4c0.7-0.7,1.6-0.7,2.4,0c0.7,0.7,1.4,1.4,2.1,2C57.1,42.9,57.1,42.9,57.3,42.9z"/>
</g>
</svg>
