<?xml version="1.0" encoding="utf-8"?>
<!-- Generator: Adobe Illustrator 18.0.0, SVG Export Plug-In . SVG Version: 6.00 Build 0)  -->
<!DOCTYPE svg PUBLIC "-//W3C//DTD SVG 1.1//EN" "http://www.w3.org/Graphics/SVG/1.1/DTD/svg11.dtd">
<svg version="1.1" id="Layer_1" xmlns="http://www.w3.org/2000/svg" xmlns:xlink="http://www.w3.org/1999/xlink" x="0px" y="0px"
	 viewBox="0 0 50.6 60.9" enable-background="new 0 0 50.6 60.9" xml:space="preserve">
<g>
	<path fill-rule="evenodd" clip-rule="evenodd" d="M41,23.2c0.8,0.2,1.6,0.4,2.3,0.7c8.1,3,9.9,13.7,3.3,19.2
		c-0.4,0.3-0.5,0.6-0.5,1c0,4.9,0,9.8,0,14.6c0,0.2,0,0.4,0,0.6c-0.3,1.4-1.7,1.9-2.8,1c-1.2-1-2.4-2-3.5-2.9
		c-0.1-0.1-0.3-0.2-0.4-0.4c-1.3,1.1-2.5,2.1-3.8,3.2c-0.6,0.5-1.2,0.7-2,0.4c-0.8-0.3-1-1-1-1.8c0-3,0-5.9,0-8.9c0-0.2,0-0.4,0-0.7
		c-0.3,0-0.5,0-0.7,0c-8.9,0-17.8,0-26.7,0c-2.5,0-4.6-1.6-5.1-4C0,44.9,0,44.4,0,44C0,31.1,0,18.3,0,5.4c0-3.1,2.1-4.9,4-5.3
		C4.5,0,4.9,0,5.4,0c10.1,0,20.2,0,30.3,0C38.8,0,41,2.2,41,5.3c0,5.8,0,11.6,0,17.3C41,22.8,41,23,41,23.2z M32.6,46
		c0-0.7,0-1.3,0-1.9c0-0.4-0.1-0.6-0.4-0.9c-3.4-2.9-4.8-6.6-3.9-11c0.9-4.4,3.8-7.3,8.1-8.6c0.4-0.1,0.8-0.2,1.3-0.3
		c0-0.2,0-0.4,0-0.6c0-5.7,0-11.5,0-17.2c0-1.5-0.9-2.1-2.1-2.1c-10,0-20,0-30.1,0C4,3.4,3.4,4,3.4,5.5c0,12.8,0,25.7,0,38.5
		c0,1.4,0.6,2,2.1,2c8.8,0,17.6,0,26.4,0C32.1,46,32.3,46,32.6,46z M47.3,34.5c0-4.4-3.5-7.9-7.8-8c-4.4,0-8,3.5-8,7.9
		c0,4.4,3.5,7.9,7.9,8C43.7,42.4,47.2,38.9,47.3,34.5z M36,55.5c0.1,0,0.1,0,0.1,0c0.7-0.6,1.4-1.2,2.1-1.8c0.7-0.6,1.5-0.6,2.2,0
		c0.3,0.2,0.6,0.5,0.9,0.8c0.4,0.3,0.8,0.7,1.3,1.1c0-3.5,0-6.8,0-10.2c-2.2,0.7-4.5,0.7-6.7,0C36,48.7,36,52.1,36,55.5z"/>
	<path fill-rule="evenodd" clip-rule="evenodd" d="M6.8,14.9c0-2.1,0-4.1,0-6.2c0-1.3,0.6-1.9,1.9-1.9c3,0,6.1,0,9.1,0
		c1.2,0,1.9,0.7,1.9,1.9c0,4.2,0,8.4,0,12.5c0,1.3-0.7,1.9-1.9,1.9c-3,0-6.1,0-9.1,0c-1.3,0-1.9-0.7-1.9-1.9
		C6.8,19.1,6.8,17,6.8,14.9z M10.2,10.2c0,3.2,0,6.3,0,9.5c2.1,0,4.1,0,6.1,0c0-3.2,0-6.3,0-9.5C14.3,10.2,12.2,10.2,10.2,10.2z"/>
	<path fill-rule="evenodd" clip-rule="evenodd" d="M15.6,31c-2.5,0-5,0-7.6,0c-0.7,0-1.2-0.3-1.5-0.9c-0.3-0.6-0.2-1.2,0.1-1.7
		C7,27.8,7.4,27.6,8,27.6c5.1,0,10.2,0,15.2,0c1,0,1.7,0.8,1.7,1.7c0,0.9-0.7,1.7-1.7,1.7C20.6,31,18.1,31,15.6,31z"/>
	<path fill-rule="evenodd" clip-rule="evenodd" d="M15.6,40.2c-2.5,0-5,0-7.5,0c-1.4,0-2.2-1.4-1.5-2.5c0.3-0.5,0.8-0.8,1.4-0.8
		c5.1,0,10.2,0,15.2,0c1,0,1.7,0.8,1.7,1.7c0,0.9-0.7,1.7-1.7,1.7C20.6,40.2,18.1,40.2,15.6,40.2z"/>
	<path fill-rule="evenodd" clip-rule="evenodd" d="M28.6,12.6c-1.5,0-2.9,0-4.4,0c-1.1,0-1.8-0.7-1.8-1.7c0-1,0.8-1.7,1.9-1.7
		c2.9,0,5.9,0,8.8,0c1.1,0,1.8,0.7,1.8,1.7c0,1-0.7,1.7-1.9,1.7C31.6,12.6,30.1,12.6,28.6,12.6z"/>
	<path fill-rule="evenodd" clip-rule="evenodd" d="M28.6,21.8c-1.5,0-2.9,0-4.4,0c-1.1,0-1.8-0.7-1.8-1.7c0-1,0.8-1.7,1.8-1.7
		c2.9,0,5.9,0,8.8,0c1.1,0,1.8,0.7,1.8,1.7c0,1-0.7,1.7-1.8,1.7C31.6,21.8,30.1,21.8,28.6,21.8z"/>
</g>
</svg>
