<?xml version="1.0" encoding="utf-8"?>
<!-- Generator: Adobe Illustrator 16.0.0, SVG Export Plug-In . SVG Version: 6.00 Build 0)  -->
<!DOCTYPE svg PUBLIC "-//W3C//DTD SVG 1.1//EN" "http://www.w3.org/Graphics/SVG/1.1/DTD/svg11.dtd">
<svg version="1.1" id="Layer_1" xmlns="http://www.w3.org/2000/svg" xmlns:xlink="http://www.w3.org/1999/xlink" x="0px" y="0px"
	 viewBox="141.045 0.708 1701.79 1700" enable-background="new 141.045 0.708 1701.79 1700"
	 xml:space="preserve">
<g>
	<path fill="#FFFFFF" d="M303.62,1275.327l-10.424,10.353c-3.403,3.403-6.098,7.444-7.8,11.912l-141.818,354.543
		c-5.247,13.189-2.199,28.151,7.799,38.221c6.807,6.807,15.883,10.353,25.102,10.353c4.396,0,8.935-0.853,13.189-2.553
		l354.543-141.818c7.658-3.05,13.969-8.722,17.867-15.812c0.781-0.994,1.915-2.269,3.191-3.688L303.62,1275.327z"/>
	<path fill="#FFFFFF" d="M1788.021,53.145c-69.915-69.916-191.808-69.916-261.723,0l-179.612,179.541l261.229,261.228
		c56.868-56.301,116.857-115.581,179.965-177.91c35.314-34.816,54.813-81.261,54.955-130.827
		C1842.975,135.541,1823.688,88.813,1788.021,53.145z"/>
	<path fill="#FFFFFF" d="M1296.553,282.819l-942.801,942.376l260.235,260.235c94.166-97.074,339.936-344.192,943.581-941.597
		L1296.553,282.819z"/>
</g>
</svg>
