<?xml version="1.0" encoding="utf-8"?>
<!-- Generator: Adobe Illustrator 16.0.0, SVG Export Plug-In . SVG Version: 6.00 Build 0)  -->
<!DOCTYPE svg PUBLIC "-//W3C//DTD SVG 1.1//EN" "http://www.w3.org/Graphics/SVG/1.1/DTD/svg11.dtd">
<svg version="1.1" id="Layer_1" xmlns="http://www.w3.org/2000/svg" xmlns:xlink="http://www.w3.org/1999/xlink" x="0px" y="0px"
	 viewBox="0 0 39.042 39.113" enable-background="new 0 0 39.042 39.113" xml:space="preserve">
<g id="g1941">
	<path id="path1943" fill="#3F3F3F" d="M1.354,3.868C-0.059,5.637-3.2,14.065,10.265,27.867
		c14.183,14.539,23.335,11.429,24.91,9.788l-9.485-9.485c-1.323,1.324-3.03,0.148-6.307-2.522c-2.168-1.767-4.662-4.145-6.824-6.824
		c-1.518-1.88-2.859-3.855-1.474-5.241L1.354,3.868z"/>
	<path id="path1945" fill="#3F3F3F" d="M38.605,34.259c0.612-0.613,0.553-1.553-0.007-2.112v-0.009c0,0-7.397-7.389-7.401-7.393
		c-0.587-0.587-1.524-0.574-2.102,0.004l-2.688,2.688l9.51,9.51c0,0,2.685-2.677,2.685-2.682L38.605,34.259z"/>
	<path id="path1947" fill="#3F3F3F" d="M14.507,10.162C15.12,9.548,15.06,8.609,14.5,8.049V8.041c0,0-7.61-7.602-7.615-7.606
		C6.299-0.152,5.361-0.139,4.784,0.438L2.097,3.125l9.723,9.723c0,0,2.685-2.676,2.685-2.681L14.507,10.162z"/>
</g>
</svg>
