<?xml version="1.0" encoding="utf-8"?>
<!-- Generator: Adobe Illustrator 18.0.0, SVG Export Plug-In . SVG Version: 6.00 Build 0)  -->
<!DOCTYPE svg PUBLIC "-//W3C//DTD SVG 1.1//EN" "http://www.w3.org/Graphics/SVG/1.1/DTD/svg11.dtd">
<svg version="1.1" id="Layer_1" xmlns="http://www.w3.org/2000/svg" xmlns:xlink="http://www.w3.org/1999/xlink" x="0px" y="0px"
	 viewBox="0 0 44.9 40.9" enable-background="new 0 0 44.9 40.9" xml:space="preserve">
<g>
	<g>
		<path fill-rule="evenodd" clip-rule="evenodd" fill="#3F3F3F" d="M0,8.2c12.6,0,25.2,0,37.7,0c0.6-2.7,1.1-5.5,1.7-8.2
			c1.8,0,3.6,0,5.4,0c0,0.6,0,1.2,0,1.9c-1.3,0-2.5,0-3.9,0c-2.2,10.6-4.4,21.2-6.6,31.7c1,0.6,1.8,1.4,2,2.6
			c0.5,1.9-0.6,3.9-2.5,4.5c-1.9,0.6-3.9-0.3-4.7-2.2c-0.2-0.4-0.4-0.5-0.8-0.5c-4.2,0-8.3,0-12.5,0c-0.4,0-0.6,0.1-0.7,0.5
			c-0.7,1.8-2.6,2.8-4.5,2.3C9,40.3,7.8,38.5,8,36.7c0.2-1.9,1.8-3.4,3.8-3.4c1.4,0,3.1,0.8,3.8,2.8c4.5,0,9,0,13.6,0
			c0.1-0.2,0.2-0.4,0.3-0.7c0.6-1.2,1.6-1.9,2.9-2.1c0.1,0,0.4-0.2,0.4-0.3c0.2-1,0.4-2.1,0.7-3.2c-0.2,0-0.4,0-0.6,0
			c-8.3,0-16.5,0-24.8,0c-0.4,0-0.5-0.1-0.7-0.5c-2.3-6.9-4.7-13.8-7-20.8C0.1,8.5,0.1,8.4,0,8.2z M11.3,15.5c2.9,0,5.7,0,8.5,0
			c0-1.8,0-3.5,0-5.3c-2.9,0-5.7,0-8.5,0C11.3,11.9,11.3,13.7,11.3,15.5z M30.4,15.5c0-1.8,0-3.6,0-5.3c-2.9,0-5.7,0-8.5,0
			c0,1.8,0,3.5,0,5.3C24.7,15.5,27.5,15.5,30.4,15.5z M11.3,21.8c2.9,0,5.7,0,8.5,0c0-1.5,0-2.9,0-4.4c-2.9,0-5.7,0-8.5,0
			C11.3,18.9,11.3,20.4,11.3,21.8z M21.8,21.8c2.9,0,5.7,0,8.5,0c0-1.5,0-3,0-4.4c-2.9,0-5.7,0-8.5,0C21.8,18.9,21.8,20.4,21.8,21.8
			z M11.3,23.8c0,1.4,0,2.7,0,4.1c2.9,0,5.7,0,8.5,0c0-1.4,0-2.7,0-4.1C17,23.8,14.2,23.8,11.3,23.8z M21.8,27.9c2.9,0,5.7,0,8.5,0
			c0-1.4,0-2.7,0-4.1c-2.9,0-5.7,0-8.5,0C21.8,25.2,21.8,26.5,21.8,27.9z M2.7,10.1c0,0.1,0,0.2,0,0.2c0.5,1.6,1.1,3.2,1.6,4.9
			c0.1,0.3,0.2,0.3,0.4,0.3c1.4,0,2.8,0,4.3,0c0.1,0,0.2,0,0.3,0c0-1.8,0-3.5,0-5.3C7.1,10.1,4.9,10.1,2.7,10.1z M32.3,10.1
			c0,1.8,0,3.5,0,5.3c1.3,0,2.5,0,3.7,0c0.3-1.8,0.7-3.5,1-5.3C35.5,10.1,33.9,10.1,32.3,10.1z M9.4,21.9c0-1.5,0-3,0-4.4
			c-1.4,0-2.8,0-4.2,0c0.5,1.4,0.9,2.8,1.4,4.2c0,0.1,0.2,0.2,0.3,0.2C7.7,21.9,8.5,21.9,9.4,21.9z M35.7,17.4c-1.2,0-2.3,0-3.3,0
			c0,1.5,0,3,0,4.4c0.5,0,0.9,0,1.3,0c1.1,0,1.1,0,1.3-1.1C35.3,19.7,35.5,18.6,35.7,17.4z M32.8,35.2c-1.1,0-1.9,0.9-1.9,1.9
			c0,1,0.9,1.9,1.9,1.9c1.1,0,1.9-0.9,1.9-1.9C34.7,36,33.8,35.2,32.8,35.2z M13.7,37.1c0-1.1-0.8-1.9-1.9-1.9
			c-1.1,0-1.9,0.8-1.9,1.9c0,1,0.9,1.9,1.9,1.9C12.8,39,13.7,38.1,13.7,37.1z M32.3,27.9c0.4,0,0.7,0,1.1,0c0.1,0,0.2-0.1,0.2-0.2
			c0.3-1.3,0.5-2.6,0.8-3.9c-0.7,0-1.4,0-2.1,0C32.3,25.2,32.3,26.5,32.3,27.9z M9.4,27.9c0-1.4,0-2.7,0-4.1c-0.7,0-1.4,0-2.1,0
			c0.4,1.2,0.8,2.4,1.2,3.5C8.6,27.8,8.8,28,9.4,27.9z"/>
		<polygon fill-rule="evenodd" clip-rule="evenodd" fill="#3F3F3F" points="1.3,9.6 7.6,29.8 34,29.1 37.5,9.1 		"/>
	</g>
	<line fill="none" stroke="#FFFFFF" stroke-width="2" stroke-miterlimit="10" x1="1.3" y1="13.1" x2="39.3" y2="13.1"/>
</g>
</svg>
