<?xml version="1.0" encoding="utf-8"?>
<!-- Generator: Adobe Illustrator 16.0.0, SVG Export Plug-In . SVG Version: 6.00 Build 0)  -->
<!DOCTYPE svg PUBLIC "-//W3C//DTD SVG 1.1//EN" "http://www.w3.org/Graphics/SVG/1.1/DTD/svg11.dtd">
<svg version="1.1" id="Layer_1" xmlns="http://www.w3.org/2000/svg" xmlns:xlink="http://www.w3.org/1999/xlink" x="0px" y="0px"
	 width="1000px" height="1000px" viewBox="0 0 1000 1000" enable-background="new 0 0 1000 1000" xml:space="preserve">
<rect fill="#E6E7E8" width="1000" height="1000"/>
<g>
	<path fill="#939598" d="M553.115,366.322c-0.283-1.704-1.703-2.84-3.408-2.84h-42.605c-1.705,0-3.125,1.136-3.409,2.84L500,387.626
		c-0.284,1.136,0,1.988,0.853,2.841c0.567,0.852,1.704,1.136,2.84,1.136H553.4c1.136,0,1.988-0.568,2.84-1.136
		c0.568-0.853,0.853-1.989,0.853-2.841L553.115,366.322z M507.67,384.785l2.271-14.202h36.642l2.272,14.202H507.67z"/>
	<path fill="#939598" d="M580.385,395.579l-9.374-47.72c-0.567-3.408-3.692-5.681-7.101-5.681h-71.011
		c-3.408,0-6.25,2.272-7.102,5.681l-9.373,47.436h-29.54c0-3.124-0.853-5.965-2.557-8.805c-0.568-1.137-1.704-1.705-3.125-1.705
		h-24.428c-1.136,0-2.557,0.568-3.124,1.705c-1.704,2.84-2.557,5.681-2.557,8.805h3.692c-23.575,0-42.606,19.031-42.606,42.606
		v78.112c0,11.645,9.658,21.303,21.304,21.303h198.83l0,0c19.599,0,35.505-15.906,35.505-35.506v-53.115
		C627.819,421.143,607.084,398.419,580.385,395.579z M419.048,391.887h19.883c0.568,1.136,0.568,2.272,0.568,3.692h-21.303
		C418.479,394.159,418.479,393.022,419.048,391.887z M411.379,523.115h-17.895c-3.977,0-7.102-3.125-7.102-7.102v-78.112
		c0-15.622,12.782-28.404,28.404-28.404h32.098v10.51c0,15.338-5.966,29.54-16.759,40.335
		c-12.214,12.213-18.747,28.119-18.747,45.445V523.115z M528.404,523.115c-27.268,0-49.707-22.439-49.707-49.708
		s22.439-49.708,49.707-49.708s49.707,22.439,49.707,49.708S555.672,523.115,528.404,523.115z M613.617,501.811
		c0,11.93-9.657,21.305-21.303,21.305h-23.859c14.485-11.646,23.859-29.826,23.859-49.708c0-35.222-28.688-63.91-63.91-63.91
		s-63.909,28.688-63.909,63.91c0,20.167,9.373,38.062,23.859,49.708h-70.158v-17.611c0-15.338,5.965-29.54,16.758-40.334
		c12.214-12.214,18.747-28.12,18.747-45.447v-10.226h28.404c3.408,0,6.249-2.272,7.101-5.681l9.374-47.436h59.365l9.656,47.436
		c0.568,3.408,3.693,5.681,7.102,5.681c21.304,0,38.914,17.61,38.914,39.198V501.811z"/>
	<path fill="#939598" d="M411.379,420.291c-7.953,0-14.202,6.249-14.202,14.202s6.249,14.202,14.202,14.202
		s14.202-6.249,14.202-14.202S419.048,420.291,411.379,420.291z M411.379,441.594c-3.977,0-7.102-3.124-7.102-7.101
		s3.125-7.102,7.102-7.102s7.101,3.125,7.101,7.102S415.071,441.594,411.379,441.594z"/>
	<path fill="#939598" d="M528.404,434.493c-21.588,0-39.198,17.61-39.198,39.198c0,21.586,17.61,38.914,39.198,38.914
		c21.587,0,39.197-17.611,39.197-39.198S549.991,434.493,528.404,434.493z M528.404,505.504c-17.61,0-32.097-14.203-32.097-32.097
		c0-17.895,14.202-32.097,32.097-32.097s32.098,14.202,32.098,32.097C560.502,491.301,546.015,505.504,528.404,505.504z"/>
</g>
<text transform="matrix(1 0 0 1 243.814 641.4482)" fill="#939598" font-family="'Biko'" font-size="62.4928">Produktbild saknas</text>
</svg>
