<?xml version="1.0" standalone="no"?>
<!DOCTYPE svg PUBLIC "-//W3C//DTD SVG 20010904//EN"
 "http://www.w3.org/TR/2001/REC-SVG-20010904/DTD/svg10.dtd">
<svg version="1.0" xmlns="http://www.w3.org/2000/svg"
 width="500.000000pt" height="500.000000pt" viewBox="0 0 500.000000 500.000000"
 preserveAspectRatio="xMidYMid meet">
<metadata>
Created by potrace 1.11, written by Peter Selinger 2001-2013
</metadata>
<g transform="translate(0.000000,500.000000) scale(0.100000,-0.100000)"
fill="#000000" stroke="none">
<path d="M1327 4523 c-3 -3 -67 -5 -141 -5 -93 0 -136 -4 -137 -12 -1 -6 -1
-30 -2 -53 0 -26 -4 -40 -10 -36 -6 4 -7 1 -1 -8 14 -23 15 -52 2 -61 -7 -4
-8 -8 -3 -8 6 0 11 -16 12 -35 0 -22 -3 -32 -10 -28 -6 4 -7 1 -1 -8 13 -20
13 -79 0 -79 -7 0 -8 -3 -1 -8 14 -10 17 -74 3 -66 -7 5 -8 2 -2 -7 13 -20 13
-113 0 -121 -8 -6 -8 -8 0 -8 6 0 12 -11 12 -25 0 -16 -5 -22 -12 -18 -8 5 -8
3 0 -8 15 -19 15 -139 0 -139 -6 0 -4 -5 4 -10 13 -9 13 -11 0 -20 -8 -5 -10
-10 -4 -10 14 0 14 -63 0 -72 -8 -5 -7 -8 1 -8 14 0 14 -39 -1 -59 -8 -11 -8
-13 2 -7 7 4 12 1 12 -8 0 -9 -6 -16 -12 -16 -9 0 -9 -3 -2 -8 12 -8 12 -51 0
-71 -6 -9 -5 -12 1 -8 6 4 11 -4 11 -18 0 -14 -5 -22 -11 -18 -6 4 -7 1 -1 -8
14 -23 15 -52 2 -61 -7 -4 -8 -8 -3 -8 6 0 11 -16 12 -35 0 -22 -3 -32 -10
-28 -6 4 -7 1 -1 -8 13 -20 13 -79 0 -79 -7 0 -8 -3 -1 -8 14 -10 17 -74 3
-66 -7 5 -8 2 -2 -7 13 -20 13 -113 0 -121 -8 -6 -8 -8 0 -8 6 0 12 -11 12
-25 0 -16 -5 -22 -12 -18 -8 5 -8 3 0 -8 15 -19 15 -139 0 -139 -6 0 -4 -5 4
-10 13 -9 13 -11 0 -20 -8 -5 -10 -10 -4 -10 14 0 14 -63 0 -72 -8 -5 -7 -8 1
-8 14 0 14 -39 -1 -59 -8 -11 -8 -13 2 -7 7 4 12 1 12 -8 0 -9 -6 -16 -12 -16
-9 0 -9 -3 -2 -8 12 -8 12 -51 0 -71 -6 -9 -5 -12 1 -8 6 4 10 -4 11 -18 0
-14 -5 -22 -11 -18 -6 4 -7 1 -1 -8 15 -24 16 -60 2 -77 -10 -12 -10 -14 0 -8
7 4 12 1 12 -8 0 -9 -6 -16 -12 -16 -8 0 -9 -3 -3 -8 14 -10 15 -65 1 -74 -8
-6 -8 -8 0 -8 6 0 12 -11 12 -25 0 -14 -6 -25 -12 -25 -8 0 -8 -2 0 -8 14 -9
14 -43 0 -61 -8 -11 -8 -13 2 -7 7 4 12 2 12 -8 0 -8 -6 -17 -12 -19 -10 -4
-10 -6 0 -6 6 -1 12 -8 12 -16 0 -8 -6 -15 -12 -15 -9 0 -10 -3 -2 -8 14 -9
14 -165 0 -174 -8 -5 -7 -8 1 -8 14 0 14 -39 -1 -59 -8 -11 -8 -13 2 -7 7 4
12 1 12 -8 0 -9 -6 -16 -12 -16 -9 0 -8 -4 2 -10 13 -8 13 -13 2 -31 -8 -11
-9 -18 -3 -14 6 3 11 -1 11 -9 0 -9 -6 -16 -12 -16 -8 0 -9 -3 -3 -8 14 -10
15 -65 1 -74 -8 -6 -8 -8 0 -8 6 0 12 -11 12 -25 0 -14 -6 -25 -12 -25 -8 0
-8 -2 0 -8 14 -9 14 -43 0 -61 -8 -11 -8 -13 2 -7 7 4 12 2 12 -8 0 -8 -6 -17
-12 -19 -10 -4 -10 -6 0 -6 6 -1 12 -8 12 -16 0 -8 -6 -15 -12 -15 -9 0 -10
-3 -2 -8 14 -9 14 -165 0 -174 -8 -5 -7 -8 1 -8 14 0 14 -39 -1 -59 -8 -11 -8
-13 2 -7 7 4 12 1 12 -8 0 -9 -6 -16 -12 -16 -9 0 -10 -2 -2 -8 15 -9 15 -62
0 -62 -7 0 -8 -3 -1 -8 16 -10 17 -54 2 -45 -9 5 -9 3 -1 -8 15 -19 15 -139 0
-139 -6 0 -4 -5 4 -10 13 -9 13 -11 0 -20 -8 -5 -10 -10 -4 -10 14 0 14 -63 0
-72 -8 -5 -7 -8 1 -8 14 0 14 -39 -1 -59 -8 -11 -8 -13 2 -7 7 4 12 1 12 -8 0
-9 -6 -16 -12 -16 -9 0 -9 -3 -2 -8 12 -8 12 -51 0 -71 -6 -9 -5 -12 1 -8 6 4
10 -4 10 -18 1 -14 -4 -22 -10 -18 -6 4 -7 1 -1 -8 5 -8 9 -29 10 -47 2 -19 5
-36 8 -39 6 -7 86 -9 86 -3 0 3 16 5 35 5 19 0 35 -3 35 -6 0 -4 17 -5 38 -3
80 9 172 9 172 0 0 -5 6 -3 13 3 8 6 17 8 20 5 8 -8 87 -11 87 -3 0 3 13 4 30
1 19 -3 27 -8 23 -16 -4 -6 1 -5 10 2 9 8 21 11 27 7 5 -3 10 -3 10 2 0 7 28
8 73 4 5 -1 5 -7 1 -13 -5 -9 -3 -9 9 1 9 7 26 11 37 8 11 -3 20 -2 20 1 0 4
16 7 35 7 19 0 35 -3 35 -7 0 -6 41 -2 67 7 7 2 15 0 18 -5 4 -7 13 -6 26 0
10 6 19 7 19 3 0 -10 63 -9 78 1 7 4 12 3 12 -2 0 -10 30 -10 46 0 5 4 16 3
22 -1 7 -4 33 -5 57 -1 24 4 42 3 40 -1 -3 -4 6 -6 20 -5 14 0 25 3 25 6 0 4
34 4 73 1 5 -1 5 -7 1 -13 -5 -9 -3 -9 9 1 9 7 26 11 37 8 11 -3 20 -2 20 1 0
4 16 7 35 7 19 0 35 -3 35 -6 0 -4 17 -5 38 -3 80 9 172 9 172 0 0 -5 6 -4 13
2 7 6 18 7 26 3 7 -4 30 -5 51 -1 28 5 38 4 33 -4 -4 -6 1 -5 10 3 12 9 17 10
17 2 0 -7 4 -10 10 -6 5 3 33 8 62 11 29 3 72 10 96 15 24 5 48 7 53 4 5 -4 9
-2 9 4 0 5 11 8 25 7 14 -2 22 1 18 7 -4 6 2 8 15 5 12 -4 22 -2 22 2 0 8 58
26 73 22 4 -1 7 3 7 8 0 6 9 10 19 10 11 0 23 5 26 11 4 6 13 8 21 5 8 -3 14
-1 14 4 0 7 32 23 51 25 3 0 13 8 23 17 10 10 23 18 29 18 7 0 47 25 90 55 43
31 83 52 89 49 6 -4 8 -3 5 3 -9 14 55 71 72 65 8 -3 11 0 8 5 -8 13 39 57 52
49 7 -4 8 -1 5 8 -3 9 7 27 25 45 17 17 31 35 31 41 0 5 3 9 8 7 4 -1 9 3 11
8 8 17 26 33 33 29 4 -2 10 1 14 7 4 8 3 9 -4 5 -18 -11 -14 3 7 30 10 13 22
20 26 16 3 -4 5 -2 3 4 -4 13 34 84 45 84 4 0 6 4 2 9 -3 5 0 15 7 23 7 7 14
18 15 23 1 6 16 42 32 80 17 39 35 89 41 113 10 39 13 42 28 30 15 -11 16 -11
4 3 -8 10 -10 28 -7 45 4 16 7 36 7 44 1 8 8 21 17 28 9 8 10 11 3 7 -9 -5
-11 1 -8 22 20 120 26 301 11 306 -6 2 -4 11 4 20 11 14 11 17 1 17 -8 0 -11
3 -8 6 4 3 2 19 -2 35 -6 20 -5 29 3 29 8 0 8 3 -1 9 -8 4 -12 14 -11 22 1 8
-1 21 -4 29 -4 8 -8 26 -9 40 -2 14 -7 31 -12 38 -4 7 -5 16 -2 19 3 3 2 11
-3 17 -4 6 -16 35 -26 64 -9 29 -35 90 -58 135 -23 45 -41 88 -40 94 0 7 -2
11 -6 9 -4 -3 -20 16 -36 42 -109 176 -334 370 -538 465 -52 24 -57 29 -47 47
6 11 15 18 20 15 6 -3 7 1 4 9 -3 9 -2 16 3 16 5 0 15 17 22 38 8 20 18 39 22
42 5 3 19 38 32 78 19 59 26 70 37 59 12 -10 12 -9 2 4 -7 10 -11 28 -8 40 3
13 7 35 10 49 6 25 20 166 18 185 0 6 -2 31 -5 57 -3 33 -1 45 7 41 7 -4 6 -1
-1 8 -7 8 -13 33 -15 54 -1 22 -8 53 -16 68 -8 15 -11 34 -8 42 3 8 2 15 -2
15 -4 0 -16 24 -26 53 -22 61 -86 177 -121 219 -14 16 -23 34 -19 39 3 5 2 8
-3 7 -4 -1 -42 31 -84 72 -98 96 -149 132 -264 186 -123 59 -235 86 -357 88
-54 0 -98 3 -98 6 0 3 -24 4 -52 2 -108 -6 -607 -4 -617 3 -6 3 -11 2 -11 -2
0 -5 -17 -7 -37 -6 -35 3 -83 3 -214 1 -26 0 -52 2 -58 6 -6 4 -11 3 -11 -1 0
-9 -84 -7 -107 1 -6 3 -13 2 -16 -1z m481 -504 c4 10 96 0 110 -11 9 -8 11 -7
6 7 -6 14 -4 16 6 10 17 -11 48 -12 87 -4 21 4 39 2 52 -8 19 -12 20 -12 14 3
-5 13 -3 15 13 7 10 -5 28 -8 39 -7 35 4 79 5 122 3 24 -2 45 0 48 3 3 2 26 2
53 -3 26 -4 48 -3 50 2 2 4 9 6 15 4 7 -2 50 -6 96 -9 47 -3 87 -9 90 -13 3
-5 15 -10 26 -11 11 -2 22 -8 23 -13 2 -5 8 -7 13 -4 12 8 51 -14 44 -25 -3
-6 0 -7 8 -4 17 6 70 -39 59 -50 -4 -4 -2 -7 3 -6 23 5 33 -2 66 -47 46 -65
92 -162 86 -184 -3 -11 -1 -22 5 -25 11 -7 8 -136 -5 -183 -14 -54 -56 -141
-68 -141 -6 0 -8 -4 -5 -9 13 -20 -170 -166 -204 -164 -3 1 -23 -7 -45 -16
-35 -14 -100 -16 -550 -16 l-510 0 0 42 c0 24 5 43 10 43 7 0 7 3 0 8 -12 9
-14 112 -1 112 4 0 4 6 -1 13 -11 13 -10 108 1 125 3 6 3 13 -2 15 -9 6 -8
129 1 144 4 7 4 14 -1 16 -6 5 -9 116 -2 142 1 6 1 12 0 15 -7 19 -4 100 5
100 7 0 7 3 0 8 -6 4 -10 35 -10 69 l0 61 68 -2 c37 -1 67 1 67 4 0 3 26 3 58
0 31 -4 58 -4 60 -1z m-210 -1428 c-10 -13 -8 -12 8 2 24 20 38 22 28 5 -5 -8
0 -7 11 2 15 12 19 13 23 1 4 -11 6 -11 12 0 7 10 12 10 26 -2 11 -9 15 -9 10
-1 -4 6 -2 12 3 12 6 0 11 -6 11 -12 0 -9 3 -9 8 -3 4 6 16 11 27 11 11 0 23
-5 27 -11 5 -6 8 -5 8 4 0 11 3 11 17 0 11 -10 14 -10 9 -1 -4 7 -1 12 9 12
10 0 13 -5 9 -12 -5 -9 -2 -9 9 1 16 13 22 8 17 -14 -1 -5 7 -2 18 8 22 20 37
23 26 5 -5 -8 -1 -8 10 1 15 13 19 13 27 0 6 -10 9 -10 9 -1 0 6 5 12 11 12 5
0 7 -6 3 -12 -6 -10 -4 -10 7 0 7 6 17 12 22 12 4 0 5 -6 1 -12 -5 -8 -1 -8
10 1 15 13 19 13 27 0 5 -8 9 -9 9 -3 0 6 7 11 15 11 8 0 12 -4 9 -9 -3 -4 -1
-8 5 -8 5 0 11 6 14 13 3 9 8 8 22 -3 10 -8 16 -10 12 -4 -4 7 2 12 18 12 15
0 22 -5 18 -12 -3 -6 0 -6 8 2 15 14 33 17 25 4 -3 -5 1 -9 9 -9 8 0 12 4 9 8
-7 12 50 6 58 -6 5 -6 8 -5 8 4 0 11 3 11 17 0 11 -10 14 -10 9 -1 -4 7 -1 12
9 12 10 0 13 -5 9 -12 -5 -9 -2 -9 9 1 16 13 22 8 17 -14 -1 -5 7 -2 18 8 20
18 68 20 91 3 11 -8 13 -8 8 0 -4 7 12 11 48 11 36 0 52 -4 48 -11 -4 -6 2 -4
12 4 15 12 19 13 23 1 4 -11 6 -11 12 0 7 10 12 10 26 -2 11 -9 15 -9 10 -1
-4 6 -3 12 1 12 5 0 15 -6 22 -12 11 -10 13 -10 7 0 -4 6 -2 12 3 12 6 0 11
-6 11 -12 0 -10 2 -10 9 0 4 8 12 14 16 14 4 0 12 -6 16 -14 7 -10 9 -10 9 -1
0 15 21 13 32 -2 5 -7 8 -6 8 1 0 6 15 9 33 8 17 -1 32 -3 32 -4 0 -2 77 -10
103 -10 12 0 22 -4 22 -10 0 -5 9 -7 20 -5 14 3 20 -2 20 -13 0 -15 2 -15 10
-2 9 13 11 13 20 0 5 -8 10 -12 10 -8 0 4 13 2 30 -3 17 -6 27 -16 23 -22 -3
-6 -1 -7 5 -3 12 7 72 -19 83 -36 3 -5 9 -9 13 -8 13 2 65 -34 60 -42 -3 -4 5
-8 16 -8 15 0 20 -5 17 -14 -4 -10 -1 -13 8 -9 9 3 18 -4 24 -18 5 -13 10 -20
10 -15 1 5 23 -15 51 -45 27 -30 47 -60 45 -66 -2 -7 2 -13 9 -13 16 0 104
-173 108 -211 2 -13 6 -26 9 -29 32 -25 33 -347 2 -420 -8 -19 -8 -19 -18 -55
-10 -36 -48 -116 -78 -166 -69 -114 -186 -225 -309 -292 -64 -36 -202 -83
-265 -92 -59 -8 -1317 -10 -1329 -2 -7 4 -11 1549 -5 1613 1 6 12 12 26 12 22
0 24 -3 13 -17z"/>
<path d="M3513 675 c0 -8 4 -12 9 -9 5 3 6 10 3 15 -9 13 -12 11 -12 -6z"/>
<path d="M3330 581 c0 -6 4 -13 10 -16 6 -3 7 1 4 9 -7 18 -14 21 -14 7z"/>
<path d="M3170 520 c0 -5 5 -10 11 -10 5 0 7 5 4 10 -3 6 -8 10 -11 10 -2 0
-4 -4 -4 -10z"/>
<path d="M1385 460 c-3 -6 1 -7 9 -4 18 7 21 14 7 14 -6 0 -13 -4 -16 -10z"/>
<path d="M2010 466 c0 -2 7 -7 16 -10 8 -3 12 -2 9 4 -6 10 -25 14 -25 6z"/>
<path d="M2665 460 c-3 -6 1 -7 9 -4 18 7 21 14 7 14 -6 0 -13 -4 -16 -10z"/>
<path d="M1473 445 c0 -8 4 -12 9 -9 5 3 6 10 3 15 -9 13 -12 11 -12 -6z"/>
<path d="M2750 456 c0 -2 8 -10 18 -17 15 -13 16 -12 3 4 -13 16 -21 21 -21
13z"/>
</g>
</svg>
