<?xml version="1.0" encoding="utf-8"?>
<!-- Generator: Adobe Illustrator 18.0.0, SVG Export Plug-In . SVG Version: 6.00 Build 0)  -->
<!DOCTYPE svg PUBLIC "-//W3C//DTD SVG 1.1//EN" "http://www.w3.org/Graphics/SVG/1.1/DTD/svg11.dtd">
<svg version="1.1" id="Layer_1" xmlns="http://www.w3.org/2000/svg" xmlns:xlink="http://www.w3.org/1999/xlink" x="0px" y="0px"
	 viewBox="0 0 80 49" enable-background="new 0 0 80 49" xml:space="preserve">
<g id="button">
	<g>
		<rect fill-rule="evenodd" clip-rule="evenodd" fill="#FD551F" width="80" height="49"/>
	</g>
	<rect fill-rule="evenodd" clip-rule="evenodd" fill="#FD551F" width="20" height="49"/>
</g>
<path id="förstoringsglas" fill-rule="evenodd" clip-rule="evenodd" fill="#FFFFFF" d="M44,30.5c-1.3,1-2.9,1.6-4.5,1.9
	C33.6,33.6,27.8,30,26,24.2c-2-6.7,2.2-13.7,9-15.1c5.6-1.1,11.2,1.9,13.3,7.3c1.1,2.9,1.2,5.8,0,8.7c-0.4,1-1,1.8-1.6,2.7
	c-0.1,0.1-0.1,0.1-0.2,0.2c0.1,0.1,0.2,0.1,0.2,0.2c2.5,2.5,4.9,5,7.4,7.5c0.5,0.5,0.5,1,0,1.5c-0.3,0.3-0.7,0.7-1,1
	c-0.5,0.4-1,0.4-1.4,0c-2.5-2.5-5.1-4.9-7.6-7.4C44.1,30.6,44,30.6,44,30.5z M37.3,12.1c-4.8,0-8.7,3.9-8.7,8.7
	c0,4.8,3.9,8.6,8.7,8.6c4.8,0,8.6-3.9,8.6-8.6C45.9,16,42,12.1,37.3,12.1z"/>
</svg>
