<?xml version="1.0" encoding="utf-8"?>
<!-- Generator: Adobe Illustrator 16.0.0, SVG Export Plug-In . SVG Version: 6.00 Build 0)  -->
<!DOCTYPE svg PUBLIC "-//W3C//DTD SVG 1.1//EN" "http://www.w3.org/Graphics/SVG/1.1/DTD/svg11.dtd">
<svg version="1.1" id="Layer_1" xmlns="http://www.w3.org/2000/svg" xmlns:xlink="http://www.w3.org/1999/xlink" x="0px" y="0px"
	 viewBox="0 0 247.496 29.693" enable-background="new 0 0 247.496 29.693"
	 xml:space="preserve">
<g>
	<path fill="#FD551F" d="M0,0.877h10.203c1.793,0,3.507,0.717,4.743,1.993c1.275,1.236,1.993,2.95,1.993,4.743
		c0,1.395-0.398,2.71-1.195,3.826l-0.04,0.04l0.04,0.04c1.116,0.438,2.152,1.116,2.989,1.993c1.754,1.714,2.71,4.024,2.71,6.497
		c0,2.429-0.957,4.742-2.71,6.496c-1.713,1.713-4.025,2.75-6.457,2.75H0V0.877z M10.203,10.841c1.753-0.04,3.188-1.475,3.188-3.228
		c0-1.754-1.395-3.188-3.188-3.269H3.547v6.497H10.203z M12.275,25.787c3.109-0.08,5.62-2.711,5.62-5.779
		c0-3.109-2.511-5.66-5.62-5.7H3.547v11.479H12.275z"/>
	<path fill="#FD551F" d="M38.3,11h3.428v18.253H38.3v-2.113c-1.714,1.436-3.866,2.512-6.138,2.512c-2.551,0-4.942-0.957-6.775-2.75
		c-1.793-1.834-2.79-4.225-2.79-6.775c0-2.551,0.997-4.943,2.79-6.775c1.833-1.793,4.225-2.75,6.775-2.75
		c2.272,0,4.424,1.076,6.138,2.511V11z M38.3,20.127c0-3.389-2.75-6.178-6.138-6.178s-6.138,2.789-6.138,6.178
		c0,3.386,2.75,6.177,6.138,6.177S38.3,23.514,38.3,20.127z"/>
	<path fill="#FD551F" d="M59.463,0h3.428v29.254h-3.428v-2.113c-1.714,1.436-3.866,2.512-6.138,2.512
		c-2.551,0-4.942-0.957-6.775-2.75c-1.793-1.834-2.79-4.225-2.79-6.775c0-2.551,0.997-4.943,2.79-6.775
		c1.833-1.793,4.225-2.75,6.775-2.75c2.272,0,4.424,1.076,6.138,2.511V0z M59.463,20.127c0-3.389-2.75-6.178-6.138-6.178
		s-6.138,2.789-6.138,6.178c0,3.386,2.75,6.177,6.138,6.177S59.463,23.514,59.463,20.127z"/>
	<path fill="#FD551F" d="M69.905,12.874c1.156-1.275,4.544-2.272,6.656-2.272l-0.837,3.428c-3.188,0-5.819,2.43-5.819,5.5v9.724
		h-3.427V11h3.427V12.874z"/>
	<path fill="#FD551F" d="M78.553,21.442V11h3.428v10.441c0,2.669,2.232,4.863,5.022,4.863c2.75,0,5.022-2.193,5.022-4.863V11h3.428
		v10.441c0,2.232-0.917,4.304-2.511,5.859s-3.707,2.352-5.938,2.352c-2.272,0-4.384-0.797-5.979-2.352S78.553,23.674,78.553,21.442z
		"/>
	<path fill="#FD551F" d="M130.125,19.45v9.804h-3.428V19.45c0-2.99-2.431-5.46-5.38-5.46c-2.989,0-5.42,2.47-5.42,5.46v9.804h-3.428
		V19.45c0-2.99-2.391-5.46-5.38-5.46c-2.949,0-5.381,2.47-5.381,5.46v9.804h-3.427V11h3.427v1.753
		c1.555-1.195,3.428-2.112,5.381-2.112c2.352,0,4.583,1.036,6.257,2.71c0.319,0.319,0.598,0.638,0.837,0.996
		c0.279-0.358,0.558-0.677,0.877-0.996c1.674-1.674,3.906-2.71,6.257-2.71s4.543,0.877,6.218,2.551
		C129.209,14.866,130.125,17.059,130.125,19.45z"/>
	<path fill="#FD551F" d="M145.669,23.873c0,1.037-0.279,2.033-0.877,2.869c-0.559,0.838-1.355,1.475-2.432,1.994
		c-0.957,0.438-2.112,0.678-3.268,0.678c-0.639,0-1.236-0.08-1.874-0.201c-1.993-0.398-3.866-1.275-5.46-2.629l2.152-2.352
		c2.112,1.793,3.906,2.152,5.021,2.152c0.758,0,1.475-0.16,2.112-0.439c0.519-0.238,1.435-0.836,1.435-2.072
		s-1.076-1.992-3.547-2.431c-0.119-0.039-3.148-0.598-4.265-1.234c-1.674-0.957-2.551-2.432-2.551-4.266
		c0-0.996,0.319-1.952,0.877-2.79c0.519-0.717,1.235-1.275,2.272-1.753c0.956-0.438,1.992-0.678,3.148-0.678
		c0.438,0,0.916,0.04,1.354,0.08c1.754,0.279,3.468,1.036,4.902,2.192l-1.993,2.312c-1.793-1.396-3.348-1.595-4.104-1.595
		c-0.718,0-1.396,0.12-1.953,0.399c-0.797,0.398-1.315,1.116-1.315,1.833c0,1.195,0.957,1.834,3.388,2.352
		c0.04,0,3.308,0.717,4.226,1.236c1.076,0.557,1.475,0.996,1.912,1.555C145.39,21.881,145.669,22.836,145.669,23.873z"/>
	<path fill="#FD551F" d="M167.35,20.127c0,2.55-0.997,4.941-2.83,6.775c-1.793,1.793-4.185,2.75-6.735,2.75
		c-2.271,0-4.424-1.076-6.139-2.512v2.113h-3.427V0h3.427v13.113c1.715-1.435,3.867-2.511,6.139-2.511
		c2.551,0,4.942,0.957,6.735,2.75C166.353,15.184,167.35,17.577,167.35,20.127z M163.922,20.127c0-3.389-2.75-6.178-6.138-6.178
		s-6.139,2.789-6.139,6.178c0,3.386,2.751,6.177,6.139,6.177S163.922,23.514,163.922,20.127z"/>
	<path fill="#FD551F" d="M187.756,20.127c0,2.55-0.997,4.941-2.83,6.775c-1.793,1.793-4.185,2.789-6.735,2.789
		s-4.942-0.996-6.775-2.789c-1.794-1.834-2.79-4.225-2.79-6.775c0-2.551,0.996-4.943,2.79-6.775c1.833-1.793,4.225-2.75,6.775-2.75
		s4.942,0.957,6.735,2.75C186.759,15.184,187.756,17.577,187.756,20.127z M184.328,20.127c0-3.389-2.75-6.098-6.138-6.098
		s-6.138,2.709-6.138,6.098c0,3.386,2.75,6.136,6.138,6.136S184.328,23.514,184.328,20.127z"/>
	<path fill="#FD551F" d="M204.732,0h3.428v29.254h-3.428v-2.113c-1.714,1.436-3.866,2.512-6.138,2.512
		c-2.551,0-4.942-0.957-6.775-2.75c-1.794-1.834-2.79-4.225-2.79-6.775c0-2.551,0.996-4.943,2.79-6.775
		c1.833-1.793,4.225-2.75,6.775-2.75c2.271,0,4.424,1.076,6.138,2.511V0z M204.732,20.127c0-3.389-2.75-6.178-6.138-6.178
		s-6.138,2.789-6.138,6.178c0,3.386,2.75,6.177,6.138,6.177S204.732,23.514,204.732,20.127z"/>
	<path fill="#FD551F" d="M227.968,20.963h-14.069v0.08c0.399,3.029,2.671,5.3,5.302,5.341c1.634-0.08,3.308-0.758,4.463-1.914
		l2.87,1.715c-0.718,0.797-1.515,1.475-2.432,2.031c-1.395,0.838-3.108,1.275-4.822,1.355c-2.392,0-4.583-0.996-6.178-2.789
		c-1.435-1.555-2.312-3.547-2.471-5.74c-0.04-0.279-0.04-0.557-0.04-0.836c0-0.719,0.08-1.436,0.239-2.152
		c0.358-1.674,1.155-3.189,2.271-4.424c1.595-1.754,3.826-2.75,6.178-2.75c2.392,0,4.584,0.996,6.218,2.75
		c1.116,1.235,1.953,2.75,2.271,4.424C228.048,19.688,228.008,20.606,227.968,20.963z M224.381,18.094l-0.04-0.08
		c-0.797-2.352-2.829-3.945-5.062-3.945c-2.192,0-4.225,1.593-5.062,3.945l-0.04,0.08H224.381z"/>
	<path fill="#FD551F" d="M247.496,19.45v9.804h-3.427V19.45c0-2.99-2.392-5.46-5.381-5.46c-2.949,0-5.381,2.47-5.381,5.46v9.804
		h-3.428V11h3.428v1.753c1.555-1.195,3.428-2.112,5.381-2.112c2.352,0,4.583,0.877,6.257,2.551
		C246.58,14.866,247.496,17.059,247.496,19.45z"/>
</g>
</svg>
