<?xml version="1.0" encoding="utf-8"?>
<!-- Generator: Adobe Illustrator 16.0.0, SVG Export Plug-In . SVG Version: 6.00 Build 0)  -->
<!DOCTYPE svg PUBLIC "-//W3C//DTD SVG 1.1//EN" "http://www.w3.org/Graphics/SVG/1.1/DTD/svg11.dtd">
<svg version="1.1" id="Layer_1" xmlns="http://www.w3.org/2000/svg" xmlns:xlink="http://www.w3.org/1999/xlink" x="0px" y="0px"
	 viewBox="0 0 72.792 86.527" enable-background="new 0 0 72.792 86.527" xml:space="preserve">
<g>
	<g>
		<path fill="#4E4E4E" d="M36.396,6.812c-15.898,0-28.834,12.978-28.834,28.931c0,15.952,12.936,28.931,28.834,28.931
			c15.898,0,28.833-12.979,28.833-28.931C65.229,19.79,52.293,6.812,36.396,6.812z M36.155,63.556
			c-15.629,0-28.298-12.353-28.298-27.589c0-15.237,12.669-27.588,28.298-27.588S64.454,20.73,64.454,35.967
			C64.454,51.204,51.784,63.556,36.155,63.556z"/>
		<path fill="#4E4E4E" d="M36.155,8.379c-15.629,0-28.298,12.352-28.298,27.588c0,15.236,12.669,27.589,28.298,27.589
			s28.299-12.353,28.299-27.589C64.454,20.73,51.784,8.379,36.155,8.379z M36.396,62.51c-14.706,0-26.67-12.009-26.67-26.768
			c0-14.759,11.964-26.768,26.67-26.768c14.707,0,26.67,12.009,26.67,26.768C63.066,50.501,51.102,62.51,36.396,62.51z"/>
	</g>
	<g>
		<path fill="#4E4E4E" d="M71.068,40.561c0.847-1.491,1.724-3.032,1.724-4.818c0-1.788-0.877-3.329-1.725-4.819
			c-0.564-0.991-1.097-1.926-1.3-2.823c-0.216-0.952-0.14-2.058-0.06-3.229c0.113-1.685,0.231-3.426-0.512-4.978
			c-0.761-1.579-2.207-2.578-3.605-3.544c-0.949-0.656-1.848-1.276-2.436-2.015c-0.594-0.748-1-1.768-1.431-2.85
			C61.098,9.91,60.45,8.28,59.092,7.192c-1.352-1.083-3.076-1.356-4.744-1.621c-1.15-0.183-2.235-0.355-3.1-0.773
			c-0.837-0.406-1.633-1.14-2.477-1.917c-1.256-1.159-2.554-2.356-4.276-2.75C44.112,0.044,43.702,0,43.278,0
			c-1.251,0-2.494,0.376-3.695,0.74c-1.131,0.342-2.199,0.665-3.187,0.665S34.34,1.082,33.209,0.74C32.007,0.376,30.764,0,29.513,0
			c-0.424,0-0.834,0.044-1.219,0.132c-1.722,0.393-3.02,1.59-4.276,2.749c-0.843,0.777-1.638,1.512-2.476,1.917
			c-0.864,0.418-1.949,0.59-3.098,0.773c-1.668,0.264-3.393,0.538-4.744,1.62c-1.358,1.087-2.006,2.717-2.633,4.293
			c-0.43,1.081-0.836,2.102-1.43,2.848c-0.588,0.739-1.485,1.359-2.436,2.015c-1.398,0.966-2.845,1.965-3.604,3.546
			c-0.745,1.55-0.627,3.291-0.514,4.977c0.08,1.172,0.156,2.278-0.061,3.23c-0.203,0.897-0.735,1.833-1.299,2.824
			C0.877,32.415,0,33.956,0,35.743s0.877,3.328,1.725,4.819c0.564,0.99,1.096,1.925,1.299,2.822c0.216,0.952,0.14,2.058,0.06,3.229
			c-0.114,1.685-0.231,3.426,0.513,4.976c0.76,1.582,2.206,2.58,3.605,3.546c0.951,0.657,1.847,1.276,2.435,2.015
			c0.594,0.747,1,1.768,1.431,2.85c0.626,1.575,1.275,3.206,2.632,4.293c1.351,1.082,3.076,1.355,4.745,1.62
			c1.149,0.183,2.234,0.355,3.098,0.773c0.836,0.405,1.633,1.14,2.476,1.917c1.256,1.158,2.554,2.356,4.277,2.75
			c0.384,0.087,0.793,0.131,1.217,0.131c1.251,0,2.494-0.375,3.697-0.738c1.13-0.343,2.199-0.666,3.187-0.666
			s2.056,0.323,3.187,0.665c1.202,0.364,2.445,0.739,3.696,0.739c0.425,0,0.834-0.044,1.218-0.131
			c1.723-0.394,3.02-1.591,4.275-2.75c0.844-0.777,1.64-1.512,2.477-1.917c0.864-0.418,1.948-0.59,3.098-0.772
			c1.668-0.264,3.394-0.538,4.744-1.621c1.357-1.086,2.006-2.717,2.633-4.293c0.43-1.081,0.838-2.103,1.431-2.848
			c0.589-0.739,1.485-1.359,2.435-2.015c1.399-0.966,2.847-1.966,3.605-3.546c0.745-1.551,0.627-3.293,0.514-4.977
			c-0.08-1.172-0.156-2.278,0.061-3.23C69.971,42.486,70.503,41.551,71.068,40.561z M69.187,39.491
			c-0.616,1.084-1.255,2.205-1.529,3.416c-0.284,1.26-0.195,2.579-0.109,3.854c0.101,1.469,0.194,2.856-0.304,3.893
			c-0.512,1.063-1.666,1.861-2.885,2.703c-1.038,0.717-2.111,1.459-2.898,2.447c-0.793,0.996-1.277,2.216-1.748,3.395
			c-0.547,1.377-1.064,2.676-1.975,3.406c-0.904,0.725-2.277,0.941-3.732,1.172c-1.253,0.199-2.549,0.404-3.7,0.963
			c-1.126,0.545-2.078,1.424-3.001,2.274c-1.095,1.011-2.129,1.965-3.29,2.229c-1.03,0.236-2.392-0.141-3.808-0.569
			c-1.23-0.372-2.504-0.757-3.812-0.757s-2.582,0.385-3.813,0.757c-1.416,0.429-2.774,0.806-3.806,0.569
			c-1.162-0.265-2.196-1.221-3.292-2.23c-0.921-0.851-1.874-1.729-3-2.273c-1.151-0.559-2.449-0.764-3.702-0.963
			c-1.454-0.23-2.828-0.447-3.73-1.172c-0.912-0.73-1.428-2.029-1.976-3.406c-0.469-1.179-0.955-2.398-1.748-3.395
			c-0.787-0.99-1.86-1.73-2.898-2.447c-1.22-0.844-2.373-1.64-2.884-2.704c-0.498-1.035-0.404-2.423-0.303-3.892
			c0.086-1.275,0.177-2.594-0.108-3.854c-0.275-1.21-0.913-2.331-1.53-3.416c-0.741-1.303-1.441-2.534-1.441-3.749
			c0-1.215,0.7-2.446,1.441-3.749c0.616-1.084,1.254-2.206,1.529-3.416C5.418,27.317,5.329,26,5.243,24.724
			c-0.101-1.469-0.195-2.857,0.304-3.893c0.511-1.063,1.665-1.859,2.884-2.703c1.038-0.718,2.111-1.458,2.898-2.448
			c0.793-0.997,1.279-2.216,1.749-3.396c0.546-1.375,1.064-2.675,1.975-3.406c0.904-0.724,2.277-0.941,3.73-1.172
			c1.253-0.198,2.551-0.404,3.702-0.962c1.125-0.545,2.078-1.424,3.001-2.274c1.095-1.011,2.129-1.965,3.29-2.23
			c1.028-0.234,2.392,0.141,3.807,0.569c1.231,0.373,2.505,0.757,3.813,0.757s2.582-0.384,3.812-0.757
			c1.414-0.428,2.777-0.803,3.807-0.569c1.162,0.265,2.196,1.22,3.291,2.23c0.923,0.85,1.875,1.729,3.001,2.274
			c1.151,0.558,2.448,0.764,3.704,0.963c1.452,0.23,2.826,0.448,3.729,1.171c0.912,0.73,1.428,2.03,1.977,3.405
			c0.469,1.18,0.954,2.399,1.748,3.396c0.787,0.99,1.86,1.731,2.897,2.449c1.222,0.843,2.373,1.639,2.884,2.702
			c0.498,1.036,0.404,2.424,0.304,3.894c-0.087,1.274-0.177,2.592,0.108,3.853c0.275,1.21,0.913,2.331,1.53,3.415
			c0.741,1.303,1.441,2.535,1.441,3.75C70.628,36.958,69.928,38.188,69.187,39.491z"/>
	</g>
	<g>
		<path fill="#4E4E4E" d="M28.237,83.249l-4.997-4.087l-6.303,0.152l3.624-13.334c0.158-0.577,0.751-0.916,1.327-0.761
			c0.576,0.156,0.916,0.751,0.76,1.327l-2.863,10.535l4.205-0.102l3.34,2.732l3.931-9.757c0.224-0.556,0.855-0.822,1.408-0.6
			c0.553,0.224,0.822,0.854,0.599,1.407L28.237,83.249z"/>
	</g>
	<g>
		<path fill="#4E4E4E" d="M49.931,86.527l-8.493-14.829c-0.297-0.519-0.117-1.18,0.401-1.477c0.521-0.298,1.179-0.116,1.476,0.401
			l7.033,12.279l2.858-3.072l4.249-0.478l-6.14-13.187c-0.252-0.542-0.019-1.185,0.524-1.438c0.545-0.253,1.185-0.016,1.436,0.524
			l7.409,15.913l-6.44,0.725L49.931,86.527z"/>
	</g>
	<g>
		<path fill="#4E4E4E" d="M33.466,41.079h-3.33v-9.117l0.032-1.498l0.054-1.638c-0.553,0.553-0.938,0.916-1.153,1.088l-1.811,1.455
			l-1.605-2.004l5.076-4.042h2.737V41.079z"/>
		<path fill="#4E4E4E" d="M48.208,33.201c0,2.752-0.451,4.789-1.354,6.11c-0.901,1.322-2.289,1.983-4.164,1.983
			c-1.818,0-3.189-0.682-4.112-2.047s-1.385-3.38-1.385-6.046c0-2.78,0.449-4.83,1.347-6.148c0.898-1.318,2.281-1.978,4.15-1.978
			c1.816,0,3.191,0.69,4.121,2.069C47.742,28.524,48.208,30.543,48.208,33.201z M40.501,33.201c0,1.933,0.167,3.317,0.501,4.154
			c0.334,0.837,0.896,1.256,1.688,1.256c0.775,0,1.336-0.424,1.681-1.272c0.345-0.848,0.517-2.227,0.517-4.138
			c0-1.933-0.174-3.321-0.521-4.165c-0.35-0.844-0.908-1.267-1.676-1.267c-0.783,0-1.344,0.422-1.682,1.267
			S40.501,31.269,40.501,33.201z"/>
	</g>
	<g>
		<path fill="#4E4E4E" d="M35.535,53.494l-0.305-0.787h-0.042c-0.266,0.335-0.539,0.566-0.82,0.696
			c-0.281,0.129-0.647,0.194-1.099,0.194c-0.556,0-0.993-0.159-1.312-0.477c-0.319-0.316-0.479-0.77-0.479-1.355
			c0-0.613,0.215-1.066,0.644-1.357s1.077-0.453,1.942-0.484l1.003-0.031v-0.253c0-0.586-0.3-0.88-0.9-0.88
			c-0.462,0-1.005,0.141-1.629,0.42l-0.522-1.066c0.666-0.348,1.403-0.521,2.214-0.521c0.776,0,1.371,0.168,1.785,0.506
			c0.414,0.339,0.621,0.853,0.621,1.542v3.854H35.535z M35.603,45.842c0,0.372-0.123,0.673-0.368,0.9
			c-0.245,0.228-0.56,0.341-0.946,0.341s-0.697-0.109-0.931-0.33c-0.235-0.221-0.352-0.521-0.352-0.9
			c0-0.373,0.117-0.67,0.349-0.893c0.233-0.223,0.544-0.333,0.934-0.333c0.379,0,0.693,0.114,0.941,0.341
			C35.478,45.196,35.603,45.488,35.603,45.842z M35.069,50.814l-0.61,0.021c-0.458,0.014-0.8,0.097-1.024,0.248
			c-0.225,0.151-0.336,0.383-0.336,0.693c0,0.444,0.255,0.667,0.766,0.667c0.366,0,0.658-0.105,0.877-0.315
			c0.219-0.21,0.328-0.489,0.328-0.838V50.814z M34.785,45.853c0-0.155-0.047-0.277-0.14-0.365
			c-0.093-0.088-0.212-0.132-0.357-0.132c-0.145,0-0.264,0.044-0.357,0.132c-0.093,0.088-0.14,0.21-0.14,0.365
			c0,0.154,0.041,0.277,0.124,0.367c0.083,0.09,0.207,0.135,0.373,0.135c0.145,0,0.264-0.045,0.357-0.135
			C34.738,46.13,34.785,46.007,34.785,45.853z"/>
		<path fill="#4E4E4E" d="M41.224,47.601c0.214,0,0.392,0.016,0.532,0.047l-0.119,1.479c-0.127-0.034-0.282-0.052-0.465-0.052
			c-0.504,0-0.896,0.129-1.177,0.388c-0.281,0.259-0.422,0.62-0.422,1.087v2.943h-1.578V47.71h1.195l0.233,0.972h0.077
			c0.179-0.323,0.421-0.585,0.727-0.784C40.534,47.701,40.866,47.601,41.224,47.601z"/>
	</g>
</g>
</svg>
