<?xml version="1.0" encoding="utf-8"?>
<!-- Generator: Adobe Illustrator 16.0.0, SVG Export Plug-In . SVG Version: 6.00 Build 0)  -->
<!DOCTYPE svg PUBLIC "-//W3C//DTD SVG 1.1//EN" "http://www.w3.org/Graphics/SVG/1.1/DTD/svg11.dtd">
<svg version="1.1" id="Layer_1" xmlns="http://www.w3.org/2000/svg" xmlns:xlink="http://www.w3.org/1999/xlink" x="0px" y="0px"
	 viewBox="0 0 82.378 82.378" enable-background="new 0 0 82.378 82.378" xml:space="preserve">
<g>
	<path fill-rule="evenodd" clip-rule="evenodd" fill="#EC3B44" d="M82.378,44.484c0,0.549,0,1.098,0,1.647
		c-0.308,0.919-0.245,1.883-0.336,2.826c-0.626,6.5-3.532,12.063-7.27,17.22c-3.849,5.303-8.825,9.364-14.639,12.367
		c-4.479,2.313-9.209,3.76-14.315,3.697c-0.184-0.003-0.365-0.002-0.512,0.137c-2.837,0-5.674,0-8.512,0
		c-1.109-0.262-2.25-0.214-3.375-0.337c-7.262-0.796-13.396-4.117-18.925-8.647C8.031,68.099,3.626,61.38,1.125,53.396
		c-0.692-2.215-0.722-4.494-0.985-6.755C0.119,46.46,0.137,46.277,0,46.131c0-0.55,0-1.099,0-1.647c0.169-0.183,0.169-0.366,0-0.549
		c0-2.38,0-4.76,0-7.139c0.261-1.11,0.214-2.251,0.337-3.375c0.796-7.262,4.116-13.397,8.646-18.925
		c5.296-6.462,12.014-10.869,19.999-13.37c2.215-0.694,4.495-0.722,6.754-0.985c0.181-0.021,0.365-0.003,0.509-0.14
		c0.55,0,1.099,0,1.648,0c0.185,0.168,0.367,0.168,0.549,0c1.831,0,3.662,0,5.492,0c0.184,0.168,0.366,0.168,0.55,0
		c0.459,0,0.916,0,1.372,0c0.974,0.255,1.975,0.245,2.967,0.31c4.102,0.271,7.844,1.751,11.427,3.597
		c4.375,2.253,8.297,5.171,11.636,8.816c4.554,4.969,7.817,10.677,9.629,17.183c0.567,2.033,0.557,4.153,0.728,6.243
		c0.026,0.309-0.101,0.643,0.136,0.922c0,2.289,0,4.577,0,6.865C82.209,44.118,82.209,44.301,82.378,44.484z"/>
	<path fill-rule="evenodd" clip-rule="evenodd" fill="#A73A3F" d="M38.442,0c-0.182,0.223-0.364,0.245-0.549,0
		C38.078,0,38.261,0,38.442,0z"/>
	<path fill-rule="evenodd" clip-rule="evenodd" fill="#A73A3F" d="M44.484,0c-0.184,0.244-0.366,0.225-0.55,0
		C44.118,0,44.301,0,44.484,0z"/>
	<path fill-rule="evenodd" clip-rule="evenodd" fill="#A73A3F" d="M0,43.935c0.231,0.183,0.25,0.366,0,0.549
		C0,44.301,0,44.118,0,43.935z"/>
	<path fill-rule="evenodd" clip-rule="evenodd" fill="#A73A3F" d="M82.378,44.484c-0.251-0.183-0.232-0.366,0-0.549
		C82.378,44.118,82.378,44.301,82.378,44.484z"/>
	<path fill-rule="evenodd" clip-rule="evenodd" fill="#FFFFFF" d="M13.214,38.508c0.558-3.568,1.393-7.054,3.133-10.257
		c4.618-8.498,11.795-13.348,21.277-14.898c0.553-0.373,1.177-0.313,1.793-0.309c1.185,0,2.371,0,3.557,0
		c0.304,0.036,0.64-0.102,0.898,0.169c3.617,0.577,7.153,1.422,10.396,3.217c8.42,4.664,13.318,11.76,14.705,21.284
		c0.037,0.269,0.128,0.53,0.191,0.793c0.273,0.256,0.134,0.592,0.171,0.895c0,1.191,0,2.381,0,3.573
		c-0.037,0.303,0.103,0.639-0.17,0.897c-0.58,3.659-1.442,7.231-3.271,10.501c-4.688,8.381-11.791,13.251-21.303,14.608
		c-0.312,0.045-0.619,0.137-0.928,0.208c-1.396,0.316-2.813,0.065-4.216,0.146c-0.316-0.042-0.668,0.109-0.94-0.172
		c-3.617-0.574-7.143-1.434-10.393-3.209c-8.479-4.63-13.293-11.783-14.708-21.29c-0.04-0.268-0.129-0.527-0.194-0.792
		c-0.271-0.257-0.134-0.592-0.168-0.895c0-1.191,0-2.381,0-3.572C13.08,39.103,12.94,38.766,13.214,38.508z"/>
	<path fill-rule="evenodd" clip-rule="evenodd" fill="#EB242E" d="M39.27,69.218c1.465-0.01,2.93-0.02,4.395-0.029
		c-1.433,0.582-2.928,0.153-4.391,0.275C39.081,69.387,39.079,69.304,39.27,69.218z"/>
	<path fill-rule="evenodd" clip-rule="evenodd" fill="#EB252F" d="M43.109,13.16c-1.28,0-2.561,0.001-3.841,0.001
		c-0.188-0.086-0.188-0.169,0.003-0.25c1.277,0,2.557,0.001,3.834,0.001C43.296,12.992,43.298,13.075,43.109,13.16z"/>
	<path fill-rule="evenodd" clip-rule="evenodd" fill="#EB242F" d="M69.219,43.109c0-1.28,0-2.56,0-3.84
		c0.085-0.19,0.167-0.188,0.246,0.005c0,1.277,0,2.553-0.002,3.83C69.386,43.298,69.304,43.299,69.219,43.109z"/>
	<path fill-rule="evenodd" clip-rule="evenodd" fill="#EB242F" d="M13.161,39.269c-0.001,1.281-0.001,2.561-0.003,3.84
		c-0.085,0.19-0.166,0.189-0.243-0.005c0-1.276,0-2.553-0.001-3.83C12.991,39.08,13.074,39.079,13.161,39.269z"/>
	<path fill-rule="evenodd" clip-rule="evenodd" fill="#ED3139" d="M39.271,12.912c-0.001,0.083-0.002,0.167-0.003,0.25
		c-0.549,0.063-1.097,0.126-1.645,0.19C38.03,12.667,38.702,12.982,39.271,12.912z"/>
	<path fill-rule="evenodd" clip-rule="evenodd" fill="#ED3139" d="M13.161,39.269c-0.082,0-0.165,0.002-0.247,0.005
		c0.144-0.238-0.331-0.719,0.3-0.766C13.196,38.761,13.179,39.015,13.161,39.269z"/>
	<path fill-rule="evenodd" clip-rule="evenodd" fill="#ED2E38" d="M12.915,43.104c0.082,0.003,0.164,0.005,0.243,0.005
		c0.021,0.255,0.037,0.51,0.055,0.764C12.563,43.831,13.095,43.33,12.915,43.104z"/>
	<path fill-rule="evenodd" clip-rule="evenodd" fill="#ED2E38" d="M69.219,43.109c0.082,0,0.164-0.002,0.244-0.005
		c-0.125,0.246,0.317,0.712-0.298,0.768C69.183,43.618,69.2,43.363,69.219,43.109z"/>
	<path fill-rule="evenodd" clip-rule="evenodd" fill="#ED3139" d="M69.465,39.274c-0.082-0.003-0.164-0.004-0.246-0.005
		c-0.019-0.253-0.037-0.507-0.055-0.762C69.819,38.545,69.28,39.051,69.465,39.274z"/>
	<path fill-rule="evenodd" clip-rule="evenodd" fill="#ED2E38" d="M43.109,13.16c-0.001-0.083-0.002-0.165-0.004-0.247
		c0.243,0.127,0.713-0.315,0.767,0.299C43.617,13.196,43.364,13.177,43.109,13.16z"/>
	<path fill-rule="evenodd" clip-rule="evenodd" fill="#ED3139" d="M39.27,69.218c0.001,0.082,0.002,0.164,0.004,0.246
		c-0.243-0.129-0.715,0.32-0.766-0.301C38.762,69.182,39.015,69.199,39.27,69.218z"/>
	<path fill-rule="evenodd" clip-rule="evenodd" fill="#EC3B44" d="M24.448,49.93c-4.658-0.817-7.75-5.091-7.431-10.27
		c0.258-4.205,4.246-8.104,8.525-8.337c0.729,0.192,1.456,0.187,2.187,0.004c2.761,0.138,4.794,1.53,6.404,3.685
		c0.29,0.389,0.253,0.638-0.119,0.896c-0.111,0.079-0.212,0.174-0.316,0.262c-1.755,1.451-1.765,1.462-3.432-0.033
		c-0.761-0.684-1.682-1.072-2.579-1.509c-0.792-0.261-1.583-0.262-2.375,0c-3.397,1.485-4.898,3.964-4.418,7.301
		c0.426,2.96,2.478,4.594,6.029,4.799c0.354,0.092,0.711,0.229,1.037-0.076c1.13-0.479,2.271-0.952,2.834-2.162
		c0.193-0.416,0.639-0.828,0.178-1.342c-1.356-0.288-2.715-0.277-4.071-0.006c-0.67-0.9-0.202-1.908-0.241-2.861
		c-0.019-0.425,0.441-0.375,0.748-0.377c2.332-0.016,4.662-0.018,6.992-0.039c0.499-0.004,0.75,0.155,0.768,0.698
		c0.154,4.61-2.346,8.989-7.167,9.39C26.818,49.876,25.633,49.919,24.448,49.93z"/>
	<path fill-rule="evenodd" clip-rule="evenodd" fill="#EC3B44" d="M54.367,38.991c0.572,0.046,0.704-0.485,0.979-0.789
		c1.848-2.022,3.667-4.068,5.496-6.106c1.434-0.134,2.869-0.244,4.298,0.056c-2.013,2.327-4.01,4.672-6.209,6.829
		c-1.256,1.23-1.284,1.407-0.23,2.737c2.11,2.657,4.205,5.326,6.308,7.99c-1.465,0.228-2.931,0.185-4.396,0.015
		c-1.795-2.262-3.586-4.523-5.383-6.781c-0.253-0.316-0.53-0.613-0.796-0.918c-0.428,1.137-0.127,2.315-0.193,3.471
		c-0.082,1.402,0.098,2.813-0.098,4.215c-1.109,0.207-2.219,0.218-3.326-0.007c-0.021-5.36-0.037-10.72-0.069-16.08
		c-0.003-0.481,0.179-1-0.17-1.447c-0.044-0.039-0.086-0.079-0.128-0.12c0.023-0.053,0.049-0.106,0.072-0.16
		c0.188-0.007,0.374-0.014,0.561-0.021c1.006,0.304,2.059-0.071,3.065,0.218l-0.021-0.017c0.238,1.81,0.036,3.628,0.112,5.441
		C54.257,38.01,54.112,38.52,54.367,38.991z"/>
	<path fill-rule="evenodd" clip-rule="evenodd" fill="#EC3B44" d="M37.333,31.909c1.207,2.248,1.811,4.731,2.739,7.087
		c0.703,1.778,1.315,3.591,2.083,5.698c0.937-2.465,1.721-4.671,2.614-6.832c0.824-1.993,1.269-4.145,2.47-5.982
		c1.063,0.287,2.162-0.049,3.229,0.186c0.037,0.037,0.072,0.074,0.108,0.109c-2.279,5.756-4.558,11.512-6.837,17.267
		c-0.924,0.835-2.094,0.116-3.089,0.493c-1.084-1.733-1.587-3.709-2.323-5.584c-1.528-3.886-2.994-7.795-4.485-11.695
		c0.056-0.586,0.423-0.679,0.938-0.68C35.631,31.978,36.487,32.085,37.333,31.909z"/>
	<path fill-rule="evenodd" clip-rule="evenodd" fill="#EB2732" d="M54.089,49.699c0.002-2.042-0.001-4.085,0.009-6.127
		c0.003-0.535-0.104-1.103,0.335-1.547c-0.032,2.559-0.063,5.118-0.096,7.677C54.254,49.82,54.171,49.814,54.089,49.699z"/>
	<path fill-rule="evenodd" clip-rule="evenodd" fill="#EB2732" d="M54.367,38.991c-0.594-1.777-0.135-3.609-0.264-5.411
		c-0.037-0.499,0.012-1.002,0.021-1.503c0.555,0.863,0.212,1.819,0.248,2.728C54.432,36.197,54.375,37.596,54.367,38.991z"/>
	<path fill-rule="evenodd" clip-rule="evenodd" fill="#ED2F39" d="M24.448,49.93c1.188-0.352,2.371-0.386,3.553,0.022
		C26.816,50.224,25.631,50.208,24.448,49.93z"/>
	<path fill-rule="evenodd" clip-rule="evenodd" fill="#ED2A34" d="M65.14,32.153c-1.432-0.019-2.865-0.038-4.298-0.056
		c1.455-0.508,2.932-0.292,4.408-0.132c-0.007,0.031-0.003,0.067-0.018,0.092C65.209,32.093,65.172,32.121,65.14,32.153z"/>
	<path fill-rule="evenodd" clip-rule="evenodd" fill="#EC3038" d="M26.901,43.142c1.356-0.436,2.715-0.551,4.071,0.006
		C29.616,43.145,28.257,43.143,26.901,43.142z"/>
	<path fill-rule="evenodd" clip-rule="evenodd" fill="#ED2730" d="M60.611,49.724c1.465-0.005,2.932-0.01,4.396-0.015
		C63.544,50.191,62.077,50.167,60.611,49.724z"/>
	<path fill-rule="evenodd" clip-rule="evenodd" fill="#ED2D37" d="M37.333,31.909c-0.642,0.363-1.343,0.194-2.019,0.212
		c-0.563,0.013-1.103,0.021-1.473,0.537c-0.176-0.417-0.483-0.875,0.381-0.838C35.259,31.867,36.297,31.881,37.333,31.909z"/>
	<path fill-rule="evenodd" clip-rule="evenodd" fill="#ED2631" d="M54.089,49.699c0.084,0.001,0.167,0.002,0.248,0.003
		c-1.173,0.478-2.348,0.47-3.521,0.002C51.907,49.703,52.998,49.701,54.089,49.699z"/>
	<path fill-rule="evenodd" clip-rule="evenodd" fill="#ED2A34" d="M50.468,32.067c-1.079,0.009-2.176,0.28-3.229-0.186
		c1.095,0.005,2.187,0.011,3.281,0.016C50.505,31.955,50.488,32.011,50.468,32.067z"/>
	<path fill-rule="evenodd" clip-rule="evenodd" fill="#ED2833" d="M40.65,49.937c0.974-0.514,2.112,0.012,3.089-0.493
		c-0.15,0.865-0.838,0.507-1.314,0.538C41.837,50.023,41.242,49.957,40.65,49.937z"/>
	<path fill-rule="evenodd" clip-rule="evenodd" fill="#ED2E37" d="M25.313,34.628c0.792-0.502,1.583-0.502,2.375,0
		C26.896,34.628,26.104,34.628,25.313,34.628z"/>
	<path fill-rule="evenodd" clip-rule="evenodd" fill="#ED2B36" d="M54.146,32.094c-1.023-0.045-2.072,0.265-3.065-0.218
		C52.105,31.911,53.157,31.556,54.146,32.094z"/>
	<path fill-rule="evenodd" clip-rule="evenodd" fill="#EB2D36" d="M27.729,31.327c-0.73,0.369-1.458,0.373-2.187-0.004
		C26.271,31.18,27,31.194,27.729,31.327z"/>
	<path fill-rule="evenodd" clip-rule="evenodd" fill="#ED2D36" d="M27.961,46.652c-0.309,0.539-0.676,0.266-1.037,0.076
		C27.269,46.703,27.615,46.677,27.961,46.652z"/>
</g>
</svg>
