<?xml version="1.0" encoding="utf-8"?>
<!-- Generator: Adobe Illustrator 16.0.0, SVG Export Plug-In . SVG Version: 6.00 Build 0)  -->
<!DOCTYPE svg PUBLIC "-//W3C//DTD SVG 1.1//EN" "http://www.w3.org/Graphics/SVG/1.1/DTD/svg11.dtd">
<svg version="1.1" id="Layer_1" xmlns="http://www.w3.org/2000/svg" xmlns:xlink="http://www.w3.org/1999/xlink" x="0px" y="0px"
	 width="75.023px" height="75.134px" viewBox="0 0 75.023 75.134" enable-background="new 0 0 75.023 75.134" xml:space="preserve">
<g>
	<g>
		<path fill="#666666" stroke="#666666" stroke-width="2" stroke-miterlimit="10" d="M44.605,73.72L10.934,40.051L9.489,23.89
			L23.778,9.6l16.161,1.445l33.67,33.67L44.605,73.72z M13.175,39.004l31.43,31.428l25.716-25.716L38.89,13.286l-14.236-1.272
			L11.901,24.766L13.175,39.004z"/>
	</g>
	<g>
		<path fill="#666666" stroke="#666666" stroke-width="2" stroke-miterlimit="10" d="M25.501,32.774
			c-1.913,0-3.711-0.745-5.063-2.098c-2.791-2.792-2.791-7.333,0-10.125c1.352-1.354,3.149-2.098,5.063-2.098
			c1.913,0,3.711,0.745,5.063,2.098c2.792,2.791,2.792,7.333,0,10.125C29.212,32.029,27.414,32.774,25.501,32.774z M25.501,20.778
			c-1.292,0-2.505,0.503-3.419,1.417c-1.885,1.885-1.885,4.953,0,6.837c0.914,0.914,2.127,1.417,3.419,1.417
			c1.292,0,2.505-0.503,3.419-1.417c1.885-1.885,1.885-4.952,0-6.837C28.007,21.281,26.793,20.778,25.501,20.778z"/>
	</g>
	<g>
		<g>
			<path fill="#666666" stroke="#666666" stroke-width="2" stroke-miterlimit="10" d="M23.78,21.678
				C18.61,16.813-0.554,17.689,4.338,6.83c4.636-10.292,11.861,5.248,13.588,9.168c0.604,1.37,2.607,0.186,2.009-1.173
				C17.854,10.104,11.771-4.008,4.589,2.843C1.854,5.452-0.726,11.151,2.5,14.447c2.076,2.122,4.897,3.242,7.599,4.358
				c3.691,1.523,9.099,1.753,12.038,4.518C23.226,24.349,24.874,22.708,23.78,21.678L23.78,21.678z"/>
		</g>
	</g>
</g>
</svg>
