<?xml version="1.0" encoding="utf-8"?>
<!-- Generator: Adobe Illustrator 16.0.0, SVG Export Plug-In . SVG Version: 6.00 Build 0)  -->
<!DOCTYPE svg PUBLIC "-//W3C//DTD SVG 1.1//EN" "http://www.w3.org/Graphics/SVG/1.1/DTD/svg11.dtd">
<svg version="1.1" id="Layer_1" xmlns="http://www.w3.org/2000/svg" xmlns:xlink="http://www.w3.org/1999/xlink" x="0px" y="0px"
	 viewBox="0 0 92.969 68.543" enable-background="new 0 0 92.969 68.543" xml:space="preserve">
<path fill-rule="evenodd" clip-rule="evenodd" fill="#FFFFFF" d="M63.08,11.039c2.81-8.763,12.911-13.395,21.391-9.832
	c0.917,0.385,1.58,0.887,1.569,1.961c-0.01,1.042-0.688,1.534-1.557,1.89c-2.436,0.996-4.869,1.999-7.293,3.022
	C75.547,8.774,74.831,9.997,75,11.763c0.295,3.08,1.414,5.832,3.339,8.254c1.257,1.581,2.632,1.943,4.493,1.176
	c2.461-1.014,4.918-2.032,7.374-3.056c0.806-0.336,1.548-0.283,2.188,0.343c0.638,0.625,0.71,1.359,0.385,2.177
	c-1.258,3.167-3.301,5.708-6.159,7.55c-4.051,2.609-8.432,3.302-13.099,2.057c-3.283-0.877-6.472-0.673-9.402,1.098
	c-10.813,6.538-21.601,13.121-32.38,19.714c-2.023,1.237-3.248,3.104-3.649,5.443c-1.594,9.309-10.914,14.487-19.583,10.858
	C1.611,64.489-1.705,56.685,0.87,49.398c2.408-6.813,10.282-10.751,17.277-8.544c2.771,0.873,5.248,0.515,7.7-0.989
	c10.225-6.269,20.466-12.511,30.728-18.716c3.246-1.963,5.284-4.706,5.987-8.434C62.734,12.157,62.901,11.596,63.08,11.039z
	 M13.061,47.7c-1.491,0.865-2.952,1.781-4.425,2.677c-0.597,0.362-0.899,0.854-0.871,1.589c0.065,1.719,0.08,3.44,0.114,5.16
	c0.014,0.705,0.32,1.219,0.949,1.557c1.542,0.828,3.051,1.723,4.631,2.471c0.446,0.213,1.189,0.207,1.621-0.025
	c1.568-0.842,3.062-1.82,4.583-2.748c0.581-0.354,0.822-0.871,0.803-1.544c-0.049-1.72-0.034-3.444-0.154-5.159
	c-0.035-0.489-0.321-1.154-0.706-1.391c-1.613-0.992-3.307-1.852-4.972-2.756c-0.076-0.041-0.166-0.057-0.249-0.084
	c-0.015-0.049-0.031-0.098-0.046-0.145C13.91,47.43,13.438,47.482,13.061,47.7z"/>
</svg>
