<?xml version="1.0" encoding="utf-8"?>
<!-- Generator: Adobe Illustrator 16.0.0, SVG Export Plug-In . SVG Version: 6.00 Build 0)  -->
<!DOCTYPE svg PUBLIC "-//W3C//DTD SVG 1.1//EN" "http://www.w3.org/Graphics/SVG/1.1/DTD/svg11.dtd">
<svg version="1.1" id="Layer_1" xmlns="http://www.w3.org/2000/svg" xmlns:xlink="http://www.w3.org/1999/xlink" x="0px" y="0px"
	 viewBox="0 0 65.381 82.248" enable-background="new 0 0 65.381 82.248" xml:space="preserve">
<g>
	<path fill-rule="evenodd" clip-rule="evenodd" fill="#FFFFFF" d="M64.372,47.641c-4.017-4.121-8.044-8.231-12.049-12.363
		c-1.909-1.969-4.186-3.345-6.789-4.116c-1.241-0.368-2.477-0.539-3.775-0.59c-2.348-0.092-5.046-0.026-7.046-0.026
		c0-0.358,0-0.649,0-0.941c0-3.1-0.104-6.201-0.093-9.301c0.004-0.879-0.354-1.561-1.178-1.917c-0.229-0.1-0.729-0.135-0.729-0.143
		V18.23l-12,0.01v0.011c-1-0.001-1.386,0.782-1.392,1.943c-0.018,3.174,0.392,6.35,0.392,9.524c0,0.261,0,0.596,0,0.596
		c-1,0-0.988,0-1.26,0c-5.109,0-10.219,0-15.327,0c-1.938,0-2.413,0.782-2.413,2.689c0,4.043,0,8.086,0,12.129
		c0,1.917,0.528,2.492,2.427,2.493c12.452,0.001,24.883,0.003,37.335-0.01c0.512-0.001,0.859,0.142,1.218,0.513
		c3.728,3.85,7.467,7.681,11.209,11.514c1.149,1.178,2.082,1.17,3.236-0.014c2.754-2.823,5.505-5.648,8.258-8.472
		C65.715,49.804,65.712,49.015,64.372,47.641z"/>
	<path fill-rule="evenodd" clip-rule="evenodd" fill="#FFFFFF" d="M7.374,16.046c4.124-0.399,8.213-1.021,12.208-2.152
		c0.503-0.143,0.757-0.017,1.07,0.423c1.367,1.917,3.258,2.931,5.625,2.965c0.133,0.002,0.261-0.014,0.385-0.04
		c1.879-0.205,5.621-0.815,6.262-3.359c0.12,0.044,0.234,0.095,0.368,0.122c2.841,0.57,5.679,1.156,8.534,1.634
		c1.484,0.249,3.022,0.495,4.505,0.371c3.617-0.301,6.231-3.535,6.206-7.407c-0.028-4.545-3.487-7.815-7.834-7.341
		c-3.992,0.436-7.962,1.029-11.834,2.138c-0.163,0.047-0.295,0.053-0.418,0.036l-0.292-0.123c-0.087-0.068-0.173-0.155-0.259-0.283
		c-2.727-4.05-8.57-4.037-11.314,0.022c-0.255,0.376-0.48,0.478-0.904,0.356c-3.894-1.126-7.89-1.702-11.906-2.151
		C5.104,0.958,2.958,1.928,1.401,4.12C0.179,5.839-0.182,7.774,0.082,9.847C0.556,13.583,3.818,16.39,7.374,16.046z"/>
	<path fill-rule="evenodd" clip-rule="evenodd" fill="#FFFFFF" d="M59.155,70.1c-1.048-1.697-2.001-3.408-2.072-5.49
		c-0.033-0.937-0.928-1.547-1.897-1.496c-0.911,0.049-1.649,0.728-1.683,1.664c-0.054,1.482-0.559,2.803-1.293,4.061
		c-0.6,1.027-1.226,2.041-1.772,3.096c-0.813,1.571-1.206,3.232-0.956,5.025c0.469,3.363,3.491,5.715,6.765,5.225
		c2.784-0.418,4.971-3.176,4.982-6.458c-0.009-0.099-0.031-0.37-0.061-0.64C60.974,73.23,60.108,71.645,59.155,70.1z"/>
</g>
</svg>
