<?xml version="1.0" encoding="utf-8"?>
<!-- Generator: Adobe Illustrator 16.0.0, SVG Export Plug-In . SVG Version: 6.00 Build 0)  -->
<!DOCTYPE svg PUBLIC "-//W3C//DTD SVG 1.1//EN" "http://www.w3.org/Graphics/SVG/1.1/DTD/svg11.dtd">
<svg version="1.1" id="Layer_1" xmlns="http://www.w3.org/2000/svg" xmlns:xlink="http://www.w3.org/1999/xlink" x="0px" y="0px"
	viewBox="280.015 0.708 1359.986 1358.555"
	 enable-background="new 280.015 0.708 1359.986 1358.555" xml:space="preserve">
<g>
	<path fill="#666666" d="M409.937,1019.32l-8.33,8.273c-2.72,2.72-4.873,5.949-6.233,9.52L282.04,1320.446
		c-4.193,10.54-1.757,22.497,6.233,30.544c5.44,5.439,12.693,8.273,20.06,8.273c3.513,0,7.14-0.681,10.54-2.04l283.333-113.334
		c6.12-2.437,11.163-6.97,14.279-12.636c0.624-0.794,1.53-1.813,2.55-2.947L409.937,1019.32z"/>
	<path fill="#666666" d="M1596.196,42.613c-55.873-55.873-153.283-55.873-209.156,0l-143.537,143.48l208.761,208.76
		c45.446-44.993,93.386-92.367,143.819-142.177c28.221-27.823,43.804-64.94,43.917-104.55
		C1640.113,108.46,1624.7,71.117,1596.196,42.613z"/>
	<path fill="#666666" d="M1203.44,226.157L450,979.257l207.967,207.967c75.253-77.577,271.66-275.061,754.063-752.477
		L1203.44,226.157z"/>
</g>
</svg>
