<?xml version="1.0" encoding="utf-8"?>
<!-- Generator: Adobe Illustrator 16.0.0, SVG Export Plug-In . SVG Version: 6.00 Build 0)  -->
<!DOCTYPE svg PUBLIC "-//W3C//DTD SVG 1.1//EN" "http://www.w3.org/Graphics/SVG/1.1/DTD/svg11.dtd">
<svg version="1.1" id="Layer_1" xmlns="http://www.w3.org/2000/svg" xmlns:xlink="http://www.w3.org/1999/xlink" x="0px" y="0px"
	 width="73.697px" height="54.946px" viewBox="0 0 73.697 54.946" enable-background="new 0 0 73.697 54.946" xml:space="preserve">
<g>
	<path fill-rule="evenodd" clip-rule="evenodd" fill="#FFFFFF" d="M44.964,41.43c-0.317,0-0.589,0-0.863,0
		c-13.527,0-27.054,0.001-40.583-0.002c-1.742,0-2.975-0.84-3.389-2.34c-0.102-0.362-0.124-0.756-0.124-1.135
		C0,26.491-0.001,15.03,0.002,3.57c0-2.271,1.304-3.568,3.564-3.568c17.872-0.003,35.747-0.003,53.619,0
		c2.197,0,3.529,1.332,3.529,3.552c0.006,7.284,0.01,14.571-0.008,21.855c-0.002,0.603,0.097,0.862,0.792,0.952
		c6.121,0.794,11.235,5.96,12.06,12.112c1.023,7.656-3.754,14.499-11.276,16.15c-7.942,1.744-15.951-3.789-17.134-11.836
		C45.087,42.368,45.034,41.948,44.964,41.43z M2.396,15.467c0,0.258,0,0.485,0,0.716c0,6.794-0.002,13.589,0.001,20.384
		c0,0.296,0.014,0.597,0.051,0.892c0.123,0.997,0.613,1.459,1.627,1.54c0.254,0.021,0.513,0.025,0.767,0.025
		c13.162,0.001,26.326,0,39.488,0c0.229,0,0.457,0,0.63,0c1.422-7.5,5.844-11.759,13.311-12.888c0-3.542,0-7.089,0-10.669
		C39.645,15.467,21.061,15.467,2.396,15.467z M71.311,40.694c-0.031-6.536-5.347-11.819-11.864-11.789
		c-6.52,0.03-11.77,5.354-11.737,11.902c0.032,6.494,5.341,11.746,11.851,11.72C66.049,52.501,71.341,47.173,71.311,40.694z
		 M58.309,6.737c0-0.744,0.004-1.422-0.002-2.098c-0.003-0.233-0.019-0.469-0.057-0.698c-0.165-0.996-0.659-1.442-1.669-1.512
		c-0.233-0.016-0.469-0.011-0.703-0.011c-16.996,0-33.992,0-50.988,0c-0.318,0-0.641-0.01-0.957,0.031
		c-0.682,0.088-1.294,0.398-1.39,1.115c-0.142,1.041-0.135,2.1-0.191,3.172C21.069,6.737,39.637,6.737,58.309,6.737z"/>
	<path fill-rule="evenodd" clip-rule="evenodd" fill="#FFFFFF" d="M57.26,42.942c0.107-0.137,0.233-0.338,0.396-0.505
		c2.084-2.161,4.174-4.318,6.264-6.474c0.798-0.824,1.673-0.889,2.412-0.194c0.777,0.729,0.795,1.737,0.015,2.543
		c-2.637,2.723-5.276,5.444-7.925,8.155c-0.793,0.814-1.654,0.823-2.469,0.041c-1.121-1.079-2.235-2.162-3.34-3.257
		c-0.774-0.769-0.798-1.702-0.081-2.424c0.722-0.729,1.643-0.729,2.436,0.02c0.711,0.672,1.409,1.359,2.114,2.039
		C57.094,42.898,57.119,42.899,57.26,42.942z"/>
</g>
</svg>
