<?xml version="1.0" encoding="utf-8"?>
<!-- Generator: Adobe Illustrator 16.0.0, SVG Export Plug-In . SVG Version: 6.00 Build 0)  -->
<!DOCTYPE svg PUBLIC "-//W3C//DTD SVG 1.1//EN" "http://www.w3.org/Graphics/SVG/1.1/DTD/svg11.dtd">
<svg version="1.1" id="Layer_1" xmlns="http://www.w3.org/2000/svg" xmlns:xlink="http://www.w3.org/1999/xlink" x="0px" y="0px"
	 width="50.643px" height="60.886px" viewBox="0 0 50.643 60.886" enable-background="new 0 0 50.643 60.886" xml:space="preserve">
<g>
	<path fill-rule="evenodd" clip-rule="evenodd" fill="#FFFFFF" d="M41.008,23.229c0.807,0.237,1.572,0.414,2.303,0.686
		c8.107,3.014,9.926,13.738,3.26,19.248c-0.35,0.289-0.479,0.578-0.478,1.026c0.016,4.876,0.009,9.751,0.009,14.627
		c0,0.204,0.008,0.412-0.029,0.611c-0.254,1.366-1.686,1.911-2.773,1.034c-1.195-0.961-2.361-1.959-3.539-2.94
		c-0.143-0.119-0.29-0.232-0.442-0.354c-1.278,1.067-2.54,2.106-3.787,3.166c-0.597,0.506-1.243,0.724-1.979,0.4
		c-0.77-0.338-1.001-0.994-0.998-1.797c0.012-2.965,0.004-5.93,0.004-8.897c0-0.2,0-0.4,0-0.658c-0.254,0-0.453,0-0.652,0
		c-8.898,0-17.797,0.003-26.695-0.002c-2.53-0.001-4.559-1.614-5.079-4.047c-0.096-0.445-0.113-0.914-0.113-1.371
		C0.013,31.122,0.032,18.286,0,5.449c-0.008-3.134,2.072-4.929,4.027-5.316c0.447-0.089,0.913-0.126,1.37-0.126
		c10.109-0.008,20.217-0.009,30.326-0.005c3.104,0.002,5.281,2.179,5.283,5.275c0.004,5.778,0.002,11.558,0.002,17.337
		C41.008,22.817,41.008,23.021,41.008,23.229z M32.557,46.01c0-0.668-0.02-1.277,0.008-1.887c0.018-0.391-0.107-0.64-0.414-0.906
		c-3.383-2.935-4.814-6.639-3.888-11.027c0.938-4.44,3.753-7.299,8.106-8.614c0.402-0.122,0.819-0.198,1.259-0.304
		c0-0.207,0-0.393,0-0.576c0-5.746-0.026-11.489,0.019-17.234c0.011-1.459-0.88-2.098-2.09-2.094
		C25.533,3.392,15.511,3.381,5.488,3.381c-1.476,0-2.069,0.599-2.069,2.083c-0.001,12.834-0.001,25.671,0,38.506
		c0,1.444,0.599,2.039,2.053,2.04c8.813,0,17.625,0,26.437,0C32.096,46.01,32.282,46.01,32.557,46.01z M47.252,34.524
		c0.012-4.366-3.508-7.934-7.85-7.956c-4.416-0.023-8.006,3.516-8.019,7.905c-0.012,4.368,3.55,7.947,7.915,7.957
		C43.682,42.44,47.24,38.903,47.252,34.524z M35.963,55.463c0.08-0.008,0.1-0.003,0.11-0.01c0.709-0.586,1.412-1.178,2.128-1.755
		c0.721-0.58,1.521-0.575,2.24,0.003c0.305,0.244,0.602,0.502,0.903,0.751c0.423,0.349,0.847,0.698,1.317,1.084
		c0-3.454,0-6.813,0-10.218c-2.25,0.664-4.461,0.651-6.699,0.006C35.963,48.744,35.963,52.093,35.963,55.463z"/>
	<path fill-rule="evenodd" clip-rule="evenodd" fill="#FFFFFF" d="M6.799,14.882c0-2.062-0.003-4.121,0.001-6.186
		c0.001-1.28,0.634-1.927,1.908-1.929c3.049-0.007,6.099-0.005,9.149,0c1.236,0.002,1.9,0.66,1.902,1.892
		c0.006,4.175,0.006,8.351,0,12.524c-0.001,1.254-0.672,1.905-1.94,1.906c-3.033,0.002-6.065,0.002-9.097,0
		c-1.263-0.001-1.92-0.657-1.922-1.923C6.796,19.072,6.799,16.977,6.799,14.882z M10.21,10.179c0,3.179,0,6.324,0,9.479
		c2.063,0,4.094,0,6.12,0c0-3.185,0-6.326,0-9.479C14.264,10.179,12.242,10.179,10.21,10.179z"/>
	<path fill-rule="evenodd" clip-rule="evenodd" fill="#FFFFFF" d="M15.562,30.979c-2.521,0-5.041,0.001-7.562,0
		c-0.694,0-1.212-0.32-1.521-0.938c-0.299-0.599-0.239-1.192,0.146-1.738c0.327-0.46,0.793-0.697,1.354-0.697
		c5.075-0.006,10.151-0.011,15.226,0c0.962,0.003,1.683,0.768,1.674,1.703c-0.007,0.934-0.733,1.665-1.704,1.668
		C20.637,30.984,18.1,30.979,15.562,30.979z"/>
	<path fill-rule="evenodd" clip-rule="evenodd" fill="#FFFFFF" d="M15.568,40.18c-2.504,0.001-5.008,0.008-7.511-0.003
		C6.675,40.17,5.85,38.78,6.537,37.631c0.321-0.536,0.81-0.824,1.438-0.824c5.077-0.006,10.151-0.009,15.227,0
		c0.965,0.003,1.69,0.755,1.68,1.691c-0.01,0.936-0.734,1.672-1.7,1.678C20.644,40.187,18.105,40.18,15.568,40.18z"/>
	<path fill-rule="evenodd" clip-rule="evenodd" fill="#FFFFFF" d="M28.604,12.574c-1.465,0-2.929,0.006-4.394-0.001
		c-1.093-0.004-1.843-0.702-1.836-1.689c0.006-0.984,0.766-1.686,1.854-1.688c2.946-0.004,5.892-0.006,8.837,0
		c1.079,0.004,1.838,0.719,1.834,1.704c-0.004,0.99-0.749,1.67-1.851,1.674C31.567,12.579,30.084,12.574,28.604,12.574z"/>
	<path fill-rule="evenodd" clip-rule="evenodd" fill="#FFFFFF" d="M28.611,21.782c-1.464,0-2.929,0.004-4.393-0.001
		c-1.095-0.005-1.844-0.694-1.844-1.685c0.001-0.983,0.762-1.69,1.847-1.694c2.945-0.004,5.891-0.004,8.838,0
		c1.083,0.004,1.84,0.711,1.84,1.698c0.001,0.989-0.746,1.676-1.844,1.681C31.573,21.786,30.092,21.782,28.611,21.782z"/>
</g>
</svg>
