<?xml version="1.0" encoding="utf-8"?>
<!-- Generator: Adobe Illustrator 16.0.0, SVG Export Plug-In . SVG Version: 6.00 Build 0)  -->
<!DOCTYPE svg PUBLIC "-//W3C//DTD SVG 1.1//EN" "http://www.w3.org/Graphics/SVG/1.1/DTD/svg11.dtd">
<svg version="1.1" id="Layer_1" xmlns="http://www.w3.org/2000/svg" xmlns:xlink="http://www.w3.org/1999/xlink" x="0px" y="0px"
	 viewBox="0 179.206 594.35 482.994" enable-background="new 0 179.206 594.35 482.994"
	 xml:space="preserve">
<g>
	<path fill="#FFFFFF" d="M55.436,495.496c-14.324-0.979-26.741-5.721-37.252-15.301C6.697,469.683,0,456.291,0,440.06
		c0-67.854,0-136.636,0-204.489c0-30.555,22.928-54.459,53.528-56.366c1.907,0,2.884,0,4.79,0c91.711,0,183.468,0,274.247,0
		c27.718,0,49.669,17.207,56.366,43.948c0.977,4.79,0.977,9.534,0.977,14.324c0,11.487,0,22.927,0,34.415c1.906,0,3.813,0,5.72,0
		c22.928,0,44.926,0,67.854,0c20.044,0,36.321,8.604,47.762,24.834c24.834,37.252,49.669,73.573,73.572,110.825
		c6.697,9.534,9.534,20.044,9.534,32.509c0,36.32,0,72.596,0,108.916c0,32.508-23.904,56.367-55.436,57.344
		c-5.721,0-10.511,0-16.23,0c-3.813,0-4.79,0.977-6.697,4.789c-10.51,29.625-31.531,46.832-62.086,50.646
		c-34.414,3.813-66.876-17.209-78.363-50.646c-0.977-3.813-2.883-4.789-6.696-4.789c-29.625,0-58.272,0-87.896,0
		c-3.813,0-5.721,0.977-6.697,4.789c-9.534,30.555-38.229,50.646-69.76,50.646s-60.179-20.045-69.759-49.67
		c-1.907-4.789-3.813-5.721-8.604-5.721c-8.604,0-17.208,0-25.812-0.977c-26.741-4.789-44.925-27.717-44.925-54.459
		c0-16.23,0-33.438,0-49.668C55.436,499.308,55.436,497.402,55.436,495.496z M195.884,216.457c-45.854,0-90.78,0-136.635,0
		c-15.301,0-21.998,6.697-21.998,21.998c0,65.946,0,131.845,0,197.791c0,14.324,6.697,21.998,21.998,21.998
		c90.78,0,181.561,0,273.271,0c14.324,0,21.021-6.697,21.021-21.021c0-65.946,0-132.822,0-198.768
		c0-14.324-6.696-21.021-21.021-21.021C286.664,216.457,240.81,216.457,195.884,216.457z M390.792,310.121c0,2.883,0,4.79,0,6.697
		c0,40.135,0,80.27,0,120.405c0,4.791,0,9.533-0.977,14.324c-5.721,25.811-27.718,43.949-54.459,43.949
		c-78.363,0-156.727,0-235.043,0c-1.906,0-3.813,0-5.72,0c0,20.043,0,39.158,0,58.271c0,8.604,7.627,15.301,16.23,15.301
		c7.627,0,15.301,0,22.928,0c0.977-0.977,0.977-2.883,0.977-3.814c10.511-31.531,38.229-51.574,70.689-51.574
		s60.179,20.043,70.689,51.574c0.977,3.814,2.884,4.791,5.721,4.791c29.624,0,59.248,0,88.873,0c1.906,0,2.883,0,4.79,0
		c9.534-33.438,36.321-53.529,64.97-55.436c40.135-2.883,65.945,18.137,79.293,55.436c5.72,0,12.417,0,18.137,0
		c13.395,0,21.021-7.627,21.021-21.021c0-36.32,0-71.666,0-107.986c0-4.791-1.907-9.535-3.813-13.395
		c-23.904-36.321-47.762-71.666-71.666-107.988c-4.79-6.697-10.511-10.51-19.114-10.51c-21.998,0-44.925,0-66.876,0
		C393.675,309.144,392.698,309.144,390.792,310.121z M204.489,625.433c20.044,0,37.251-17.207,37.251-37.252
		c0-20.043-17.207-37.252-37.251-37.252c-20.045,0-37.252,17.209-37.252,37.252C167.237,609.203,184.398,625.433,204.489,625.433z
		 M446.228,625.433c21.021,0,37.251-16.23,37.251-37.252c0-20.043-16.23-37.252-37.251-37.252
		c-20.045,0-37.252,16.232-37.252,37.252C408.976,608.226,425.206,625.433,446.228,625.433z"/>
	<path fill="#FFFFFF" d="M408.976,401.831c0-17.208,0-35.345,0-52.552c0-14.324,7.627-21.021,21.997-21.021
		c4.791,0,9.534,0,15.301,0c6.697,0,12.417,2.883,16.23,8.604c18.138,27.718,37.252,55.436,55.436,83.106
		c1.907,2.883,2.884,7.627,3.813,11.486c0.978,8.605,0,17.209,0,25.813c0,11.486-7.627,19.113-19.113,19.113
		c-23.904,0-47.763,0-72.597,0c-12.417,0-20.044-7.627-20.044-20.045C408.976,438.152,408.976,419.968,408.976,401.831z
		 M428.043,346.396c0,37.251,0,74.55,0,110.825c24.835,0,48.739,0,73.573,0c0-8.604,0-18.137,0-26.742
		c0-0.977-0.977-2.883-1.907-3.813c-17.207-25.811-34.414-52.552-52.552-78.363c-0.977-0.977-2.884-2.883-3.813-2.883
		C438.554,346.396,433.81,346.396,428.043,346.396z"/>
</g>
</svg>
