<?xml version="1.0" encoding="utf-8"?>
<!-- Generator: Adobe Illustrator 16.0.0, SVG Export Plug-In . SVG Version: 6.00 Build 0)  -->
<!DOCTYPE svg PUBLIC "-//W3C//DTD SVG 1.1//EN" "http://www.w3.org/Graphics/SVG/1.1/DTD/svg11.dtd">
<svg version="1.1" id="Layer_1" xmlns="http://www.w3.org/2000/svg" xmlns:xlink="http://www.w3.org/1999/xlink" x="0px" y="0px"
	viewBox="0 0 100 100" enable-background="new 0 0 100 100" xml:space="preserve">
<circle fill="#8CAFA8" cx="50" cy="50" r="50"/>
<g>
	<path fill="#FFFFFF" d="M44.691,64.443v-2.146c0-4.952,1.155-9.904,3.384-15.352c1.816-4.209,3.796-7.263,4.457-8.254
		c0.082-0.082,0.082-0.165,0.165-0.247v-0.083c1.815-2.724,1.733-4.044,1.485-4.869c-0.247-1.155-0.99-2.063-1.981-2.642
		c-0.825-0.495-1.567-0.66-2.228-0.66c-0.33,0-0.743,0-1.073,0.083h-0.083c-1.073,0.33-1.981,1.073-2.641,2.063
		c-0.33,0.66-0.495,1.568-0.495,2.311v2.146H34.705v-2.146c0-2.641,0.743-5.447,2.063-7.676c1.898-3.466,5.2-5.942,9.244-7.016
		c1.321-0.412,2.641-0.577,3.962-0.577c2.641,0,5.199,0.66,7.676,1.898c3.549,2.063,6.024,5.447,7.098,9.326
		c0.99,3.714,0.66,6.851-1.155,10.069c-0.165,0.247-0.413,0.66-0.743,1.155c-1.98,3.054-7.181,10.813-7.181,20.469v2.146H44.691z
		 M45.352,78.722c-1.238-1.237-1.898-2.889-1.898-4.704c0-3.632,2.971-6.521,6.521-6.521c3.631,0,6.521,2.889,6.521,6.521
		c0,1.815-0.661,3.467-1.898,4.704c-1.238,1.238-2.89,1.898-4.622,1.898C48.24,80.62,46.589,79.96,45.352,78.722z"/>
</g>
</svg>
