<?xml version="1.0" encoding="utf-8"?>
<!-- Generator: Adobe Illustrator 16.0.0, SVG Export Plug-In . SVG Version: 6.00 Build 0)  -->
<!DOCTYPE svg PUBLIC "-//W3C//DTD SVG 1.1//EN" "http://www.w3.org/Graphics/SVG/1.1/DTD/svg11.dtd">
<svg version="1.1" id="Layer_1" xmlns="http://www.w3.org/2000/svg" xmlns:xlink="http://www.w3.org/1999/xlink" x="0px" y="0px"
	 viewBox="0 0 1527.092 293.986" enable-background="new 0 0 1527.092 293.986"
	 xml:space="preserve">
<linearGradient id="SVGID_1_" gradientUnits="userSpaceOnUse" x1="763.5464" y1="0" x2="763.5464" y2="291.4322">
	<stop  offset="0.0865" style="stop-color:#FFFFFF"/>
	<stop  offset="0.9999" style="stop-color:#E7E7E7"/>
</linearGradient>
<rect fill-rule="evenodd" clip-rule="evenodd" fill="url(#SVGID_1_)" width="1527.092" height="293.986"/>
<circle display="none" fill-rule="evenodd" clip-rule="evenodd" fill="#FFFFFF" cx="242.913" cy="179.031" r="53.06"/>
<g display="none">
	<path display="inline" fill="#02275E" d="M395.921,185.132h-41.98v-76.279h39.178c4.947,0,8.968,0.277,12.064,0.83
		c3.096,0.554,5.595,1.436,7.499,2.646c2.802,1.765,4.938,4.048,6.408,6.85c1.47,2.802,2.206,5.985,2.206,9.548
		c0,4.255-0.917,7.861-2.75,10.819c-1.834,2.958-4.705,5.44-8.614,7.446c3.944,1.66,6.858,3.9,8.744,6.72
		c1.885,2.82,2.828,6.356,2.828,10.611c0,7.127-2.076,12.376-6.227,15.749C411.125,183.446,404.673,185.132,395.921,185.132z
		 M369.976,122.552v17.643h23.455c3.632,0,6.295-0.718,7.991-2.153c1.694-1.436,2.542-3.658,2.542-6.668
		c0-3.044-0.848-5.275-2.542-6.694c-1.696-1.418-4.359-2.127-7.991-2.127H369.976z M393.69,171.641c3.667,0,6.331-0.718,7.991-2.154
		c1.661-1.435,2.491-3.692,2.491-6.771c0-3.113-0.839-5.396-2.517-6.85c-1.678-1.453-4.333-2.18-7.965-2.18h-23.714v17.955H393.69z"
		/>
	<path display="inline" fill="#02275E" d="M468.247,122.137c-5.806,0-10.185,1.452-13.14,4.358
		c-2.954,2.906-4.587,7.352-4.897,13.336l44.366,0.052v13.284h-44.47c0.033,6.643,1.442,11.416,4.224,14.322
		c2.781,2.905,7.421,4.358,13.917,4.358h26.329v13.284h-27.107c-5.981,0-10.684-0.51-14.105-1.531
		c-3.424-1.02-6.639-2.741-9.646-5.163c-3.907-3.113-6.837-7.169-8.79-12.168c-1.954-4.999-2.931-10.975-2.931-17.929
		c0-13.491,2.921-23.445,8.764-29.862s14.901-9.626,27.176-9.626h26.641v13.284H468.247z"/>
	<path display="inline" fill="#02275E" d="M527.952,122.241h-24.647v-13.284h66.005v13.284h-24.752v62.892h-16.605V122.241z"/>
	<path display="inline" fill="#02275E" d="M591.84,108.853h17.021l32.535,76.279h-17.851l-7.005-18.162h-33.158l-6.798,18.162
		h-17.021L591.84,108.853z M599.728,124.005l-11.157,29.37h22.729L599.728,124.005z"/>
	<path display="inline" fill="#02275E" d="M679.65,185.132c-7.127,0-12.42-0.597-15.879-1.79s-6.556-3.261-9.288-6.201
		c-2.525-2.629-4.307-5.604-5.345-8.925c-1.038-3.321-1.557-7.991-1.557-14.011v-45.353h16.034v44.833
		c0,4.463,0.198,7.603,0.597,9.419c0.397,1.815,1.081,3.277,2.05,4.385c1.521,1.799,3.39,3.079,5.604,3.84
		c2.213,0.761,5.274,1.142,9.185,1.142h18.888v12.661H679.65z"/>
	<path display="inline" fill="#02275E" d="M734.976,108.853h17.021l32.535,76.279h-17.851l-7.005-18.162h-33.158l-6.798,18.162
		H702.7L734.976,108.853z M742.864,124.005l-11.157,29.37h22.729L742.864,124.005z"/>
	<path display="inline" fill="#02275E" d="M836.339,108.853h34.922c12.28,0,21.345,3.209,27.191,9.626
		c5.846,6.417,8.77,16.371,8.77,29.862c0,6.954-0.979,12.93-2.932,17.929c-1.955,4.999-4.887,9.055-8.796,12.168
		c-3.01,2.422-6.227,4.144-9.651,5.163c-3.425,1.021-8.13,1.531-14.114,1.531h-35.39V108.853z M870.951,122.137h-18.577v49.711
		h18.577c7.091,0,11.986-1.781,14.685-5.345c2.698-3.563,4.048-10.066,4.048-19.511c0-9.409-1.35-15.904-4.048-19.485
		C882.937,123.927,878.042,122.137,870.951,122.137z"/>
	<path display="inline" fill="#02275E" d="M937.796,185.132h-16.761v-76.279h16.761V185.132z"/>
	<path display="inline" fill="#02275E" d="M956.332,108.853h39.488c9.202,0,15.948,1.851,20.237,5.552
		c4.289,3.702,6.435,9.496,6.435,17.384c0,5.847-1.323,10.62-3.97,14.322s-6.46,6.089-11.441,7.16l19.044,31.861h-18.059
		l-16.813-29.993h-18.888v29.993h-16.034V108.853z M992.032,122.449h-19.666v19.199h19.666c5.327,0,9.029-0.727,11.105-2.18
		c2.075-1.453,3.113-3.943,3.113-7.472c0-3.494-1.012-5.959-3.036-7.395C1001.191,123.167,997.462,122.449,992.032,122.449z"/>
	<path display="inline" fill="#02275E" d="M1070.118,122.137c-5.806,0-10.185,1.452-13.14,4.358
		c-2.954,2.906-4.587,7.352-4.897,13.336l44.366,0.052v13.284h-44.47c0.033,6.643,1.442,11.416,4.224,14.322
		c2.781,2.905,7.421,4.358,13.917,4.358h26.329v13.284h-27.107c-5.981,0-10.684-0.51-14.105-1.531
		c-3.424-1.02-6.639-2.741-9.646-5.163c-3.907-3.113-6.837-7.169-8.79-12.168c-1.954-4.999-2.931-10.975-2.931-17.929
		c0-13.491,2.921-23.445,8.764-29.862s14.901-9.626,27.176-9.626h26.641v13.284H1070.118z"/>
	<path display="inline" fill="#02275E" d="M1113.167,108.853h16.034v36.635l30.045-36.635h19.251l-30.615,37.258l30.927,39.021
		h-20.497l-29.11-37.933v37.933h-16.034V108.853z"/>
	<path display="inline" fill="#02275E" d="M1203.778,122.241h-24.647v-13.284h66.005v13.284h-24.752v62.892h-16.605V122.241z"/>
</g>
<g>
	<path fill-rule="evenodd" clip-rule="evenodd" fill="#F49022" d="M195.974,61.895c0.548,1.198,1.842,1.204,2.808,1.706
		c6.826,3.548,10.076,10.907,8.099,18.462c-1.829,6.994-8.622,11.732-16.316,11.383c-6.896-0.313-13.078-5.862-14.406-12.93
		c-1.364-7.262,2.611-14.425,9.631-17.4c0.705-0.299,1.581-0.369,1.951-1.221C190.485,61.895,193.229,61.895,195.974,61.895z"/>
	<path fill-rule="evenodd" clip-rule="evenodd" fill="#F49022" d="M102.662,98.945c1.418-0.336,1.735-1.713,2.474-2.67
		c4.525-5.862,12.757-6.657,18.502-1.751c4.878,4.167,5.322,12.748,0.913,17.632c-4.804,5.32-13.27,5.505-18.341,0.361
		c-1.244-1.262-2.368-2.641-3.547-3.967C102.662,105.349,102.662,102.147,102.662,98.945z"/>
	<path fill-rule="evenodd" clip-rule="evenodd" fill="#F49022" d="M220.482,193.4c0,10.63-0.056,21.26,0.039,31.888
		c0.025,2.781-0.434,3.661-3.389,2.353c-20.715-9.173-33.131-29.99-31.461-53.036c1.56-21.521,17.352-40.789,38.202-46.612
		c25.504-7.122,51.615,5.035,63.008,29.336c10.714,22.854,2.88,50.901-18.531,65.56c-8.875,6.076-18.801,9.178-29.659,9.204
		c-2.416,0.005-3.127-0.709-3.078-3.1c0.144-6.969,0.126-13.944,0.009-20.914c-0.037-2.227,0.639-2.939,2.91-2.944
		c8.451-0.018,16.907,0.417,25.354-0.378c8.987-0.847,16.373-4.365,19.32-13.354c3.195-9.741,2.529-19.264-5.071-27.146
		c-5.003-5.188-11.756-5.946-18.395-6.108c-12.222-0.297-24.457-0.07-36.685-0.212c-2.631-0.03-2.614,1.362-2.608,3.233
		c0.038,10.744,0.018,21.487,0.018,32.23C220.472,193.4,220.477,193.4,220.482,193.4z"/>
	<path fill-rule="evenodd" clip-rule="evenodd" fill="#F49022" d="M141.689,149.795c11.97-0.012,21.847,9.763,21.939,21.709
		c0.093,12.07-9.891,22.097-21.952,22.045c-11.962-0.052-21.757-9.912-21.743-21.891
		C119.948,159.641,129.733,149.807,141.689,149.795z"/>
	<path fill-rule="evenodd" clip-rule="evenodd" fill="#F49022" d="M247.583,192.339c-3.198,0-6.397-0.042-9.594,0.019
		c-1.489,0.029-2.35-0.288-2.329-2.052c0.066-5.71,0.029-11.422,0.005-17.133c-0.005-1.294,0.264-2.288,1.832-2.252
		c7.074,0.167,14.186-0.558,21.217,0.384c6.595,0.882,9.409,4.367,9.221,10.55c-0.187,6.172-3.575,9.782-10.082,10.31
		c-3.402,0.276-6.846,0.049-10.271,0.049C247.583,192.255,247.583,192.297,247.583,192.339z"/>
</g>
<path fill-rule="evenodd" clip-rule="evenodd" fill="#F49022" d="M1363.379,86.118c33.307-0.032,60.791,27.166,61.049,60.407
	c0.258,33.587-27.523,61.487-61.084,61.343c-33.285-0.145-60.537-27.582-60.5-60.913
	C1302.883,113.514,1330.112,86.151,1363.379,86.118z"/>
<polygon fill-rule="evenodd" clip-rule="evenodd" fill="#FFFFFF" points="1391.356,146.993 1354.639,181.369 1354.639,112.617 "/>
<g>
	<path fill="#02275E" d="M390.548,132.79h-23.346v-12.582h62.518v12.582h-23.444v59.569h-15.728V132.79z"/>
	<path fill="#02275E" d="M455.583,192.359h-15.875V120.11h15.875V192.359z"/>
	<path fill="#02275E" d="M501.792,192.359c-6.751,0-11.764-0.565-15.04-1.695c-3.277-1.131-6.209-3.089-8.798-5.874
		c-2.392-2.489-4.079-5.308-5.062-8.453c-0.983-3.146-1.475-7.569-1.475-13.271V120.11h15.187v42.465c0,4.227,0.188,7.2,0.565,8.92
		c0.376,1.721,1.023,3.105,1.941,4.153c1.441,1.704,3.21,2.917,5.307,3.637c2.097,0.722,4.997,1.082,8.699,1.082h17.891v11.992
		H501.792z"/>
	<path fill="#02275E" d="M560.29,192.359c-6.751,0-11.764-0.565-15.04-1.695c-3.276-1.131-6.21-3.089-8.798-5.874
		c-2.392-2.489-4.079-5.308-5.063-8.453c-0.982-3.146-1.475-7.569-1.475-13.271V120.11h15.188v42.465c0,4.227,0.188,7.2,0.565,8.92
		c0.376,1.721,1.023,3.105,1.941,4.153c1.441,1.704,3.211,2.917,5.308,3.637c2.097,0.722,4.997,1.082,8.699,1.082h17.891v11.992
		H560.29z"/>
	<path fill="#02275E" d="M671.386,192.359h-39.762V120.11h37.107c4.686,0,8.494,0.263,11.428,0.786
		c2.932,0.524,5.299,1.36,7.102,2.507c2.654,1.671,4.677,3.833,6.07,6.487c1.392,2.654,2.089,5.669,2.089,9.043
		c0,4.03-0.869,7.446-2.605,10.248c-1.737,2.802-4.456,5.153-8.158,7.053c3.735,1.573,6.495,3.694,8.281,6.365
		c1.785,2.671,2.679,6.021,2.679,10.051c0,6.75-1.966,11.722-5.898,14.917C685.787,190.761,679.675,192.359,671.386,192.359z
		 M646.812,133.084v16.711h22.215c3.44,0,5.963-0.68,7.569-2.04c1.604-1.358,2.408-3.465,2.408-6.315
		c0-2.883-0.804-4.996-2.408-6.34c-1.606-1.344-4.129-2.016-7.569-2.016H646.812z M669.273,179.58c3.473,0,5.996-0.68,7.568-2.039
		c1.573-1.359,2.359-3.498,2.359-6.414c0-2.949-0.795-5.111-2.384-6.488c-1.59-1.376-4.104-2.063-7.544-2.063h-22.461v17.005
		H669.273z"/>
	<path fill="#02275E" d="M739.89,132.692c-5.499,0-9.646,1.376-12.445,4.128c-2.798,2.753-4.345,6.963-4.639,12.632l42.022,0.049
		v12.582h-42.121c0.032,6.291,1.366,10.813,4.001,13.565c2.634,2.752,7.028,4.129,13.182,4.129h24.938v12.582h-25.675
		c-5.666,0-10.12-0.482-13.361-1.449c-3.242-0.967-6.287-2.598-9.137-4.892c-3.7-2.948-6.476-6.79-8.326-11.525
		c-1.851-4.734-2.775-10.395-2.775-16.98c0-12.779,2.768-22.207,8.301-28.285c5.534-6.078,14.114-9.117,25.74-9.117h25.233v12.582
		H739.89z"/>
	<path fill="#02275E" d="M796.44,132.79h-23.346v-12.582h62.518v12.582h-23.443v59.569H796.44V132.79z"/>
	<path fill="#02275E" d="M856.953,120.11h16.121l30.816,72.249h-16.907l-6.635-17.202h-31.406l-6.438,17.202h-16.121L856.953,120.11
		z M864.423,134.461l-10.566,27.818h21.527L864.423,134.461z"/>
	<path fill="#02275E" d="M940.124,192.359c-6.751,0-11.764-0.565-15.04-1.695c-3.276-1.131-6.21-3.089-8.798-5.874
		c-2.392-2.489-4.079-5.308-5.063-8.453c-0.982-3.146-1.475-7.569-1.475-13.271V120.11h15.188v42.465c0,4.227,0.188,7.2,0.565,8.92
		c0.376,1.721,1.023,3.105,1.941,4.153c1.441,1.704,3.211,2.917,5.308,3.637c2.097,0.722,4.997,1.082,8.699,1.082h17.891v11.992
		H940.124z"/>
	<path fill="#02275E" d="M969.966,120.11h19.217l29.588,51.901l-0.737-51.901h15.531v72.249h-17.645l-31.062-54.654l0.688,54.654
		h-15.58V120.11z"/>
	<path fill="#02275E" d="M1066.751,192.359h-15.875V120.11h15.875V192.359z"/>
	<path fill="#02275E" d="M1084.307,120.11h19.217l29.588,51.901l-0.737-51.901h15.531v72.249h-17.645l-31.062-54.654l0.688,54.654
		h-15.58V120.11z"/>
	<path fill="#02275E" d="M1191.364,162.28V149.5h35.929v42.858h-32.685c-6.029,0-10.657-0.492-13.885-1.475s-6.25-2.605-9.067-4.866
		c-3.703-2.948-6.48-6.79-8.331-11.525c-1.852-4.734-2.777-10.395-2.777-16.98c0-12.746,2.777-22.167,8.331-28.261
		c5.554-6.095,14.131-9.142,25.729-9.142h32.685v12.435h-32.685c-5.964,0-10.313,1.934-13.049,5.8
		c-2.736,3.866-4.104,10.026-4.104,18.479c0,7.897,1.359,13.614,4.08,17.153c2.719,3.538,7.077,5.308,13.073,5.308h17.104V162.28
		H1191.364z"/>
</g>
</svg>
