<?xml version="1.0" encoding="utf-8"?>
<!-- Generator: Adobe Illustrator 16.0.0, SVG Export Plug-In . SVG Version: 6.00 Build 0)  -->
<!DOCTYPE svg PUBLIC "-//W3C//DTD SVG 1.1//EN" "http://www.w3.org/Graphics/SVG/1.1/DTD/svg11.dtd">
<svg version="1.1" id="Layer_1" xmlns="http://www.w3.org/2000/svg" xmlns:xlink="http://www.w3.org/1999/xlink" x="0px" y="0px"
	 viewBox="0 674.893 1683.779 1031.315"
	 enable-background="new 0 674.893 1683.779 1031.315" xml:space="preserve">
<g id="button">
	<g>
		<rect x="0" y="674.893" fill="#B7341A" width="1683.779" height="1031.315"/>
	</g>
	<rect x="0" y="674.893" fill="#B7341A" width="420.944" height="1031.315"/>
</g>
<path id="förstoringsglas" fill="#FFFFFF" d="M926.078,1316.834c-27.361,21.047-61.037,33.675-94.712,39.989
	c-124.179,25.257-246.253-50.514-284.138-172.587c-42.095-141.018,46.304-288.348,189.425-317.814
	c117.864-23.151,235.729,39.99,279.929,153.646c23.151,61.037,25.257,122.074,0,183.111c-8.419,21.047-21.048,37.885-33.676,56.827
	c-2.104,2.104-2.104,2.104-4.209,4.21c2.104,2.104,4.209,2.104,4.209,4.209c52.618,52.618,103.132,105.236,155.75,157.854
	c10.523,10.523,10.523,21.047,0,31.571c-6.314,6.313-14.733,14.732-21.048,21.047c-10.523,8.419-21.047,8.419-29.466,0
	c-52.618-52.618-107.341-103.132-159.959-155.75C928.184,1318.938,926.078,1318.938,926.078,1316.834z M785.063,929.564
	c-101.027,0-183.111,82.084-183.111,183.11c0,101.027,82.084,181.007,183.111,181.007c101.026,0,181.006-82.084,181.006-181.007
	C966.069,1011.648,883.985,929.564,785.063,929.564z"/>
</svg>
