<svg xmlns="http://www.w3.org/2000/svg" xmlns:xlink="http://www.w3.org/1999/xlink" version="1.1" x="0px" y="0px" viewBox="-137 81.6 50 62.5" style="enable-background:new -137 81.6 50 50;" xml:space="preserve"><g><path d="M-88.5,93l-9.1-9.1c-0.6-0.6-1.6-0.6-2.3,0l-29.9,29.9c-0.1,0.1-0.2,0.2-0.3,0.4c0,0,0,0,0,0c0,0,0,0,0,0.1   c0,0.1-0.1,0.1-0.1,0.2l-4,13.1c-0.3,1.1,0.9,2.4,2,2l13.1-4c0.1,0,0.1-0.1,0.2-0.1c0,0,0,0,0.1,0c0,0,0,0,0,0   c0.1-0.1,0.3-0.2,0.4-0.3l29.9-29.9C-87.9,94.7-87.9,93.6-88.5,93z M-104.9,93.6l2.3,2.3l-20.3,20.3l-3-1.6L-104.9,93.6z    M-130.2,125.7l2.6-8.4l3.8,2l2,3.8L-130.2,125.7z M-119.1,121.4l-1.6-3l20.3-20.3l2.3,2.3L-119.1,121.4z M-95.8,98.1l-6.8-6.8   l3.9-3.9l6.8,6.8l0,0L-95.8,98.1z"/></g><text x="-137" y="146.6" fill="#000000" font-size="5px" font-weight="bold" font-family="'Helvetica Neue', Helvetica, Arial-Unicode, Arial, Sans-serif">Created by Vaibhav Radhakrishnan</text><text x="-137" y="151.6" fill="#000000" font-size="5px" font-weight="bold" font-family="'Helvetica Neue', Helvetica, Arial-Unicode, Arial, Sans-serif">from the Noun Project</text></svg>