<svg xmlns="http://www.w3.org/2000/svg" xmlns:xlink="http://www.w3.org/1999/xlink" version="1.1" x="0px" y="0px" viewBox="0 0 100 125" enable-background="new 0 0 100 100" xml:space="preserve"><path fill="#000000" d="M14.969,89.077c0.639,0.576,1.256,1.133,1.816,1.674c1.667,1.609,4.502,2.459,8.202,2.459  c10.866,0,29.123-7.158,45.428-23.164C80.21,60.249,87.73,48.822,91.59,37.87c3.538-10.04,3.482-18.2-0.147-21.829  c-0.732-0.733-1.533-1.652-2.382-2.626c-3.194-3.668-7.17-8.232-12.276-8.232c-3.233,0-6.376,1.872-9.343,5.564  c-10.026,12.469-8.666,15.687-1.849,22.399c0.38,0.374,0.777,0.765,1.188,1.176c1.698,1.699-2.521,10.956-11.827,20.264  c-6.755,6.755-14.768,11.849-18.639,11.849c-0.899,0-1.188-0.286-1.283-0.38c-0.426-0.421-0.838-0.846-1.243-1.262  c-2.461-2.532-5.006-5.15-8.857-5.15c-3.464,0-7.377,2.196-12.314,6.911c-3.675,3.511-5.438,6.902-5.39,10.367  C7.301,82.149,11.553,85.99,14.969,89.077z M15.381,69.446c4.088-3.905,7.212-5.804,9.551-5.804c2.056,0,3.615,1.496,5.988,3.938  c0.423,0.436,0.854,0.879,1.299,1.319c0.708,0.7,1.994,1.536,4.096,1.536c5.835,0,14.986-6.54,21.467-13.021  c4.287-4.287,8.14-9.242,10.573-13.595c3.23-5.78,3.652-9.927,1.254-12.326c-0.419-0.419-0.823-0.817-1.211-1.198  c-5.459-5.375-6.442-6.343,2.161-17.042c2.17-2.701,4.265-4.07,6.226-4.07c3.286,0,6.459,3.644,9.26,6.859  c0.895,1.027,1.74,1.997,2.57,2.828c1.934,1.933,2.51,8.288-0.797,17.671c-3.665,10.4-10.85,21.294-20.219,30.665  C52.113,82.406,35.039,89.21,24.986,89.21c-3.645,0-5.007-0.935-5.423-1.337c-0.59-0.57-1.24-1.157-1.913-1.765  c-2.987-2.7-6.374-5.759-6.422-9.244C11.197,74.605,12.594,72.109,15.381,69.446z"/><text x="0" y="115" fill="#000000" font-size="5px" font-weight="bold" font-family="'Helvetica Neue', Helvetica, Arial-Unicode, Arial, Sans-serif">Created by Austin Condiff</text><text x="0" y="120" fill="#000000" font-size="5px" font-weight="bold" font-family="'Helvetica Neue', Helvetica, Arial-Unicode, Arial, Sans-serif">from the Noun Project</text></svg>