<svg xmlns="http://www.w3.org/2000/svg" xmlns:xlink="http://www.w3.org/1999/xlink" version="1.1" x="0px" y="0px" viewBox="0 0 100 125" enable-background="new 0 0 100 100" xml:space="preserve"><path d="M79.642,5H20.358c-0.722,0-1.308,0.586-1.308,1.308v76.72c0,0.723,0.586,1.309,1.308,1.309h37.032v9.356  c0,0.48,0.264,0.921,0.686,1.15C58.271,94.948,58.485,95,58.698,95c0.25,0,0.498-0.071,0.716-0.213l5.447-3.557l5.449,3.557  c0.403,0.262,0.917,0.284,1.338,0.056c0.422-0.229,0.686-0.67,0.686-1.15v-9.356h7.308c0.722,0,1.308-0.586,1.308-1.309V6.308  C80.949,5.586,80.363,5,79.642,5z M64.861,79.104c-3.632,0-6.587-2.953-6.587-6.584c0-3.633,2.955-6.588,6.587-6.588  c3.633,0,6.588,2.955,6.588,6.588C71.449,76.151,68.494,79.104,64.861,79.104z M65.577,88.573c-0.437-0.284-0.996-0.284-1.431,0  l-4.141,2.703v-8.13c0.004-0.04,0.013-0.078,0.013-0.119c0-0.04-0.009-0.078-0.013-0.118v-2.588  c1.412,0.881,3.072,1.398,4.855,1.398c1.784,0,3.445-0.519,4.856-1.399v10.956L65.577,88.573z M78.334,81.72h-6v-3.814  c0-0.011-0.003-0.021-0.004-0.031c1.087-1.509,1.734-3.355,1.734-5.354c0-5.075-4.129-9.203-9.203-9.203s-9.202,4.128-9.202,9.203  c0,1.998,0.647,3.845,1.735,5.354c-0.001,0.012-0.004,0.021-0.004,0.031v3.813H21.666V7.616h56.668V81.72z"/><text x="0" y="115" fill="#000000" font-size="5px" font-weight="bold" font-family="'Helvetica Neue', Helvetica, Arial-Unicode, Arial, Sans-serif">Created by Andrew Was</text><text x="0" y="120" fill="#000000" font-size="5px" font-weight="bold" font-family="'Helvetica Neue', Helvetica, Arial-Unicode, Arial, Sans-serif">from the Noun Project</text></svg>