<svg xmlns="http://www.w3.org/2000/svg" xmlns:xlink="http://www.w3.org/1999/xlink" version="1.1" x="0px" y="0px" viewBox="0 0 100 125" enable-background="new 0 0 100 100" xml:space="preserve"><metadata><?xpacket begin="&#65279;" id="W5M0MpCehiHzreSzNTczkc9d"?><x:xmpmeta xmlns:x="adobe:ns:meta/" x:xmptk="Adobe XMP Core 5.6-c011 79.156289, 2014/03/31-23:39:12        "/><?xpacket end="w"?></metadata><g><g><g><path d="M56.3642578,76.0942383c-1.15625,0-2.3056641-0.3476562-3.4179688-0.684082     C51.9003906,75.0942383,50.9130859,74.7954102,50,74.7954102s-1.9013672,0.2988281-2.9462891,0.6152344     c-1.1123047,0.3359375-2.2617188,0.6835938-3.4179688,0.6835938c-0.3916016,0-0.7705078-0.0410156-1.125-0.121582     c-1.5927734-0.3637695-2.7939453-1.4716797-3.9550781-2.5429688c-0.7792969-0.71875-1.515625-1.3974609-2.2890625-1.7724609     c-0.7988281-0.3867188-1.8027344-0.5458984-2.8652344-0.7143555c-1.5429688-0.2446289-3.1376953-0.4975586-4.3867188-1.4985352     c-1.2548828-1.0053711-1.8544922-2.5126953-2.4345703-3.9697266c-0.3974609-1-0.7734375-1.9438477-1.3222656-2.6342773     c-0.5439453-0.6831055-1.3730469-1.2558594-2.2519531-1.862793c-1.2929688-0.8930664-2.6298828-1.8168945-3.3330078-3.2783203     c-0.6884766-1.4331055-0.5791016-3.043457-0.4736328-4.6010742c0.0742188-1.0834961,0.1435547-2.1064453-0.0556641-2.9858398     c-0.1875-0.8295898-0.6796875-1.6943359-1.2011719-2.6098633c-0.7841797-1.378418-1.5947266-2.8032227-1.5947266-4.4560547     c0-1.6523438,0.8105469-3.0771484,1.59375-4.4550781c0.5214844-0.9160156,1.0136719-1.78125,1.2011719-2.6113281     c0.2001953-0.8798828,0.1298828-1.902832,0.0566406-2.9863281c-0.1054688-1.5576172-0.2148438-3.1679688,0.4746094-4.6015625     c0.7021484-1.4609375,2.0400391-2.3847656,3.3330078-3.2783203c0.8789062-0.6064453,1.7080078-1.1796875,2.2519531-1.862793     c0.5488281-0.6894531,0.9248047-1.6337891,1.3222656-2.6333008c0.5800781-1.4575195,1.1796875-2.9648438,2.4345703-3.9702148     c1.2490234-1.0004883,2.84375-1.253418,4.3857422-1.4980469c1.0625-0.168457,2.0664062-0.3276367,2.8652344-0.7143555     c0.7744141-0.375,1.5097656-1.0541992,2.2890625-1.7729492c1.1611328-1.0712891,2.3613281-2.1787109,3.9541016-2.5419922     c0.3554688-0.0810547,0.734375-0.1220703,1.1269531-0.1220703c1.15625,0,2.3056641,0.3476562,3.4169922,0.684082     C48.0996094,10.9980469,49.0869141,11.296875,50,11.296875s1.9003906-0.2988281,2.9462891-0.6147461     c1.1113281-0.3364258,2.2607422-0.684082,3.4169922-0.684082c0.3925781,0,0.7714844,0.0410156,1.1259766,0.1220703     c1.5927734,0.3632812,2.7939453,1.4711914,3.9550781,2.5424805c0.7792969,0.71875,1.5146484,1.3974609,2.2890625,1.7724609     c0.7988281,0.3867188,1.8027344,0.5458984,2.8662109,0.7143555c1.5419922,0.2446289,3.1367188,0.4975586,4.3857422,1.4985352     c1.2548828,1.0053711,1.8544922,2.5126953,2.4345703,3.9697266c0.3974609,1,0.7734375,1.9438477,1.3222656,2.6342773     c0.5439453,0.6831055,1.3740234,1.2568359,2.2519531,1.8632812c1.2929688,0.8930664,2.6298828,1.8168945,3.3330078,3.2773438     c0.6884766,1.434082,0.5791016,3.0444336,0.4736328,4.6020508c-0.0742188,1.0830078-0.1435547,2.105957,0.0556641,2.9853516     c0.1875,0.8295898,0.6796875,1.6943359,1.2011719,2.6103516c0.7841797,1.3779297,1.5947266,2.8032227,1.5947266,4.4560547     c0,1.6523438-0.8105469,3.0771484-1.59375,4.4550781c-0.5214844,0.9155273-1.0136719,1.7807617-1.2011719,2.6108398     c-0.2001953,0.8798828-0.1298828,1.902832-0.0566406,2.9863281c0.1054688,1.5576172,0.2148438,3.1679688-0.4746094,4.6015625     c-0.7021484,1.4614258-2.0400391,2.3852539-3.3339844,3.2788086c-0.8779297,0.6064453-1.7070312,1.1791992-2.2509766,1.8623047     c-0.5488281,0.6894531-0.9248047,1.6337891-1.3222656,2.6333008c-0.5800781,1.4575195-1.1796875,2.9648438-2.4345703,3.9702148     c-1.2490234,1.0009766-2.84375,1.2539062-4.3867188,1.4985352c-1.0625,0.168457-2.0654297,0.3276367-2.8642578,0.7138672     c-0.7744141,0.375-1.5097656,1.0541992-2.2890625,1.7729492c-1.1611328,1.0712891-2.3613281,2.1787109-3.9541016,2.5424805     C57.1357422,76.0532227,56.7568359,76.0942383,56.3642578,76.0942383z M50,72.7954102     c1.2089844,0,2.3867188,0.355957,3.5253906,0.7006836c1.3085938,0.3955078,2.5673828,0.7451172,3.5195312,0.5263672     c1.0732422-0.2446289,2.0302734-1.1274414,3.0429688-2.0620117c0.8525391-0.7861328,1.7333984-1.5991211,2.7744141-2.1030273     c1.0644531-0.515625,2.2626953-0.7055664,3.421875-0.8896484c1.3447266-0.2128906,2.6142578-0.4145508,3.4501953-1.0834961     c0.8417969-0.675293,1.3203125-1.8769531,1.8261719-3.1494141c0.4345703-1.090332,0.8828125-2.2177734,1.6162109-3.1391602     c0.7275391-0.9145508,1.7197266-1.6000977,2.6796875-2.2626953c1.1279297-0.7792969,2.1943359-1.515625,2.6669922-2.4995117     c0.4609375-0.9580078,0.3740234-2.2412109,0.28125-3.5996094c-0.0791016-1.1791992-0.1621094-2.3984375,0.1015625-3.5634766     c0.2539062-1.1191406,0.84375-2.1557617,1.4130859-3.1582031c0.6855469-1.2045898,1.3330078-2.3422852,1.3330078-3.4658203     s-0.6474609-2.262207-1.3330078-3.4672852c-0.5703125-1.0019531-1.1601562-2.0380859-1.4140625-3.1572266     c-0.2636719-1.1650391-0.1806641-2.3842773-0.1005859-3.5629883c0.0927734-1.3583984,0.1796875-2.6416016-0.2802734-3.5996094     c-0.4726562-0.9829102-1.5380859-1.71875-2.6669922-2.4980469c-0.9589844-0.6630859-1.9521484-1.3491211-2.6796875-2.2641602     c-0.7333984-0.9213867-1.1826172-2.0488281-1.6162109-3.1396484c-0.5068359-1.2724609-0.984375-2.4736328-1.8271484-3.1489258     c-0.8349609-0.6689453-2.1044922-0.8706055-3.4482422-1.0834961c-1.1601562-0.184082-2.359375-0.3745117-3.4238281-0.8901367     c-1.0410156-0.5039062-1.921875-1.3164062-2.7744141-2.1025391c-1.0126953-0.9345703-1.9697266-1.8173828-3.0439453-2.0620117     c-0.9511719-0.2158203-2.2109375,0.1303711-3.5185547,0.5258789C52.3867188,12.940918,51.2089844,13.296875,50,13.296875     s-2.3867188-0.355957-3.5253906-0.7001953c-1.3085938-0.3964844-2.5693359-0.7426758-3.5195312-0.5263672     c-1.0732422,0.2446289-2.0302734,1.1274414-3.0429688,2.0620117c-0.8525391,0.7861328-1.7333984,1.5986328-2.7744141,2.1025391     c-1.0644531,0.515625-2.2636719,0.7060547-3.4228516,0.8896484c-1.34375,0.2133789-2.6132812,0.4145508-3.4492188,1.0834961     c-0.8417969,0.675293-1.3203125,1.8769531-1.8261719,3.1494141c-0.4345703,1.090332-0.8828125,2.2177734-1.6162109,3.1391602     c-0.7275391,0.9145508-1.7197266,1.6000977-2.6796875,2.2626953c-1.1279297,0.7797852-2.1943359,1.5161133-2.6669922,2.4995117     c-0.4609375,0.9580078-0.3740234,2.2412109-0.28125,3.5996094c0.0791016,1.1791992,0.1621094,2.3984375-0.1015625,3.5634766     c-0.2539062,1.1191406-0.84375,2.1557617-1.4130859,3.1582031c-0.6855469,1.2045898-1.3330078,2.3427734-1.3330078,3.4663086     s0.6474609,2.2617188,1.3330078,3.4667969c0.5703125,1.0019531,1.1601562,2.0380859,1.4140625,3.1572266     c0.2636719,1.1650391,0.1806641,2.3842773,0.1005859,3.5634766c-0.0927734,1.3583984-0.1796875,2.6416016,0.2802734,3.5991211     c0.4726562,0.9833984,1.5390625,1.7197266,2.6669922,2.4990234c0.9599609,0.6630859,1.9521484,1.3481445,2.6796875,2.2631836     c0.7333984,0.9213867,1.1826172,2.0493164,1.6162109,3.1396484c0.5068359,1.2724609,0.984375,2.4736328,1.8271484,3.1489258     c0.8349609,0.6694336,2.1044922,0.8706055,3.4492188,1.0839844c1.1591797,0.1835938,2.3583984,0.3740234,3.4228516,0.8896484     c1.0410156,0.5039062,1.921875,1.3164062,2.7734375,2.1025391c1.0136719,0.9345703,1.9707031,1.8178711,3.0449219,2.0625     c0.953125,0.21875,2.2099609-0.1308594,3.5185547-0.5263672C47.6132812,73.1513672,48.7910156,72.7954102,50,72.7954102z"/></g><g><path d="M50,69.7958984c-14.7001953,0-26.6601562-12-26.6601562-26.7495117c0-14.75,11.9599609-26.75,26.6601562-26.75     s26.6601562,12,26.6601562,26.75C76.6601562,57.7958984,64.7001953,69.7958984,50,69.7958984z M50,18.2963867     c-13.5976562,0-24.6601562,11.1030273-24.6601562,24.75S36.4023438,67.7958984,50,67.7958984     s24.6601562-11.1025391,24.6601562-24.7495117S63.5976562,18.2963867,50,18.2963867z"/></g></g><g><path d="M48.3398438,54.394043l-9.5546875-10.605957c-0.3691406-0.4106445-0.3369141-1.0429688,0.0742188-1.4125977    c0.4072266-0.3681641,1.0419922-0.3383789,1.4121094,0.0737305l7.8046875,8.6635742l11.5546875-17.921875    c0.2998047-0.4638672,0.9179688-0.5981445,1.3828125-0.2983398c0.4638672,0.2993164,0.5976562,0.9179688,0.2988243,1.3823242    L48.3398438,54.394043z"/></g><g><path d="M42.4570312,86.9716797l-4.6210938-3.7788086l-5.8271484,0.1411133l3.3505859-12.3300781    c0.1455078-0.5332031,0.6943359-0.8457031,1.2275391-0.7026367c0.5322266,0.1445312,0.8466797,0.6943359,0.7021484,1.2270508    l-2.6474609,9.7412109l3.8876953-0.0942383l3.0878906,2.5268555l3.6347656-9.0219727    c0.2070312-0.5136719,0.7900391-0.7597656,1.3017578-0.5541992c0.5117188,0.206543,0.7597656,0.7890625,0.5537109,1.3012695    L42.4570312,86.9716797z"/></g><g><path d="M62.515625,90.0019531l-7.8535156-13.7109375c-0.2744141-0.4794922-0.1083984-1.090332,0.3710938-1.3647461    c0.4824219-0.2753906,1.0898438-0.1079102,1.3652344,0.3706055l6.5019531,11.3544922l2.6435547-2.8408203l3.9287109-0.4418945    l-5.6767578-12.1928711c-0.2334023-0.5004883-0.0166016-1.0952148,0.484375-1.3286133    c0.5039062-0.234375,1.0957031-0.0151367,1.328125,0.4848633l6.8505859,14.7133789l-5.9560547,0.6694336L62.515625,90.0019531z"/></g></g><text x="0" y="115" fill="#000000" font-size="5px" font-weight="bold" font-family="'Helvetica Neue', Helvetica, Arial-Unicode, Arial, Sans-serif">Created by 23 icons</text><text x="0" y="120" fill="#000000" font-size="5px" font-weight="bold" font-family="'Helvetica Neue', Helvetica, Arial-Unicode, Arial, Sans-serif">from the Noun Project</text></svg>