<svg xmlns="http://www.w3.org/2000/svg" xmlns:xlink="http://www.w3.org/1999/xlink" version="1.1" x="0px" y="0px" viewBox="0 0 100 125" enable-background="new 0 0 100 100" xml:space="preserve"><g><g><path d="M59.627,97.266L16.185,53.826L14.32,32.974l18.437-18.438l20.85,1.865l43.442,43.442L59.627,97.266z M19.076,52.475    l40.551,40.549l33.18-33.18L52.255,19.292L33.887,17.65L17.433,34.104L19.076,52.475z"/></g><g><path d="M34.98,44.436c-2.468,0-4.788-0.961-6.533-2.707c-3.601-3.602-3.601-9.462,0-13.063c1.745-1.746,4.064-2.707,6.532-2.707    s4.788,0.961,6.533,2.707c3.602,3.601,3.602,9.461,0,13.063C39.768,43.475,37.448,44.436,34.98,44.436z M34.98,28.959    c-1.666,0-3.232,0.649-4.411,1.828c-2.432,2.432-2.432,6.389,0,8.821c1.179,1.179,2.745,1.828,4.411,1.828    c1.667,0,3.233-0.649,4.412-1.828c2.432-2.432,2.432-6.389,0-8.821C38.213,29.608,36.647,28.959,34.98,28.959z"/></g><g><g><rect x="32.671" y="65.261" transform="matrix(0.7071 0.7071 -0.7071 0.7071 62.3897 -17.1045)" width="38.342" height="3"/></g><g><rect x="40.021" y="57.909" transform="matrix(0.7071 0.7071 -0.7071 0.7071 59.3449 -24.4546)" width="38.342" height="3"/></g><g><rect x="47.37" y="50.559" transform="matrix(0.7071 0.7071 -0.7071 0.7071 56.2995 -31.8044)" width="38.343" height="3"/></g></g><g><g><path d="M32.759,30.12c-6.67-6.277-31.396-5.147-25.084-19.158c5.982-13.279,15.303,6.771,17.532,11.829     c0.779,1.767,3.363,0.239,2.591-1.514C25.113,15.186,17.265-3.021,7.999,5.818C4.47,9.184,1.141,16.538,5.303,20.79     c2.679,2.738,6.318,4.183,9.804,5.623c4.762,1.966,11.74,2.261,15.532,5.829C32.045,33.565,34.171,31.448,32.759,30.12     L32.759,30.12z"/></g></g></g><text x="0" y="115" fill="#000000" font-size="5px" font-weight="bold" font-family="'Helvetica Neue', Helvetica, Arial-Unicode, Arial, Sans-serif">Created by Iris Sun</text><text x="0" y="120" fill="#000000" font-size="5px" font-weight="bold" font-family="'Helvetica Neue', Helvetica, Arial-Unicode, Arial, Sans-serif">from the Noun Project</text></svg>