<svg xmlns="http://www.w3.org/2000/svg" xmlns:xlink="http://www.w3.org/1999/xlink" version="1.1" x="0px" y="0px" viewBox="0 0 100 125" enable-background="new 0 0 100 100" xml:space="preserve"><path d="M68.7,19.8c-0.1-0.6-0.6-1-1.2-1h-15c-0.6,0-1.1,0.4-1.2,1L50,27.3c-0.1,0.4,0,0.7,0.3,1c0.2,0.3,0.6,0.4,1,0.4h17.5  c0.4,0,0.7-0.2,1-0.4c0.2-0.3,0.3-0.7,0.3-1L68.7,19.8z M52.7,26.3l0.8-5h12.9l0.8,5H52.7z"/><path d="M78.3,30.1L75,13.3c-0.2-1.2-1.3-2-2.5-2h-25c-1.2,0-2.2,0.8-2.5,2L41.7,30H31.3c0-1.1-0.3-2.1-0.9-3.1  c-0.2-0.4-0.6-0.6-1.1-0.6h-8.6c-0.4,0-0.9,0.2-1.1,0.6c-0.6,1-0.9,2-0.9,3.1H20c-8.3,0-15,6.7-15,15v27.5c0,4.1,3.4,7.5,7.5,7.5  l70,0c0,0,0,0,0,0C89.4,80,95,74.4,95,67.5V48.8C95,39.1,87.7,31.1,78.3,30.1z M21.5,28.8h7c0.2,0.4,0.2,0.8,0.2,1.3h-7.5  C21.3,29.6,21.3,29.2,21.5,28.8z M18.8,75l-6.3,0c-1.4,0-2.5-1.1-2.5-2.5V45c0-5.5,4.5-10,10-10h11.3v3.7c0,5.4-2.1,10.4-5.9,14.2  c-4.3,4.3-6.6,9.9-6.6,16V75z M60,75c-9.6,0-17.5-7.9-17.5-17.5S50.4,40,60,40s17.5,7.9,17.5,17.5S69.6,75,60,75z M90,67.5  c0,4.2-3.4,7.5-7.5,7.5l-8.4,0c5.1-4.1,8.4-10.5,8.4-17.5C82.5,45.1,72.4,35,60,35S37.5,45.1,37.5,57.5c0,7.1,3.3,13.4,8.4,17.5  l-24.7,0v-6.2c0-5.4,2.1-10.4,5.9-14.2c4.3-4.3,6.6-9.9,6.6-16V35h10c1.2,0,2.2-0.8,2.5-2l3.3-16.7h20.9L73.8,33  c0.2,1.2,1.3,2,2.5,2C83.8,35,90,41.2,90,48.8V67.5z"/><path d="M18.8,38.8c-2.8,0-5,2.2-5,5s2.2,5,5,5s5-2.2,5-5S21.5,38.8,18.8,38.8z M18.8,46.3c-1.4,0-2.5-1.1-2.5-2.5s1.1-2.5,2.5-2.5  s2.5,1.1,2.5,2.5S20.1,46.3,18.8,46.3z"/><path d="M60,43.8c-7.6,0-13.8,6.2-13.8,13.8S52.4,71.3,60,71.3s13.8-6.2,13.8-13.8S67.6,43.8,60,43.8z M60,68.8  c-6.2,0-11.3-5-11.3-11.3s5-11.3,11.3-11.3s11.3,5,11.3,11.3S66.2,68.8,60,68.8z"/><text x="0" y="115" fill="#000000" font-size="5px" font-weight="bold" font-family="'Helvetica Neue', Helvetica, Arial-Unicode, Arial, Sans-serif">Created by Arthur Shlain</text><text x="0" y="120" fill="#000000" font-size="5px" font-weight="bold" font-family="'Helvetica Neue', Helvetica, Arial-Unicode, Arial, Sans-serif">from the Noun Project</text></svg>