<?xml version="1.0" encoding="utf-8"?>
<!-- Generator: Adobe Illustrator 16.0.0, SVG Export Plug-In . SVG Version: 6.00 Build 0)  -->
<!DOCTYPE svg PUBLIC "-//W3C//DTD SVG 1.1//EN" "http://www.w3.org/Graphics/SVG/1.1/DTD/svg11.dtd">
<svg version="1.1" id="Layer_1" xmlns="http://www.w3.org/2000/svg" xmlns:xlink="http://www.w3.org/1999/xlink" x="0px" y="0px"
	 viewBox="0 0 44.858 40.909" enable-background="new 0 0 44.858 40.909" xml:space="preserve">
<g>
	<path fill-rule="evenodd" clip-rule="evenodd" fill="#FFFFFF" d="M1.071,11.077C0.693,9.961,0.506,9.736,0.128,8.62
		C0.087,8.504,0.058,8.385,0,8.188c12.612,0,25.167,0,37.749,0C38.319,5.443,38.884,2.724,39.45,0c1.823,0,3.596,0,5.408,0
		c0,0.626,0,1.236,0,1.896c-1.271,0-2.543,0-3.855,0c-0.742,3.586-1.218,5.602-1.959,9.181 M1.636,13.077h37.167
		c-1.308,6.318-3.063,14.246-4.373,20.563c1.046,0.58,1.769,1.396,2.048,2.559c0.467,1.941-0.638,3.914-2.527,4.522
		c-1.904,0.614-3.946-0.317-4.684-2.183c-0.161-0.411-0.357-0.512-0.771-0.51c-4.159,0.016-8.319,0.014-12.479,0.003
		c-0.364-0.001-0.558,0.069-0.707,0.461c-0.684,1.798-2.625,2.771-4.48,2.298c-1.807-0.459-3.063-2.26-2.852-4.082
		c0.227-1.945,1.813-3.412,3.75-3.436c1.446-0.018,3.094,0.781,3.756,2.846c4.509,0,9.023,0,13.569,0
		c0.089-0.211,0.169-0.442,0.28-0.66c0.6-1.195,1.557-1.909,2.879-2.143c0.146-0.025,0.357-0.168,0.385-0.292
		c0.237-1.029,0.438-2.067,0.666-3.188c-0.237,0-0.433,0-0.626,0c-8.271,0-16.545-0.002-24.816,0.008
		c-0.361,0-0.54-0.08-0.666-0.453C5.437,24.287,3.364,18.175,1.636,13.077 M32.754,35.192c-1.054,0.008-1.895,0.854-1.891,1.906
		c0.004,1.043,0.861,1.899,1.903,1.902c1.055,0.004,1.937-0.887,1.918-1.939C34.666,36.014,33.811,35.186,32.754,35.192z
		 M13.678,37.097c0.004-1.062-0.821-1.897-1.879-1.905c-1.079-0.006-1.937,0.848-1.925,1.916c0.011,1.047,0.869,1.896,1.91,1.893
		C12.83,38.998,13.675,38.148,13.678,37.097z"/>
</g>
</svg>
