<?xml version="1.0" encoding="utf-8"?>
<!-- Generator: Adobe Illustrator 16.0.0, SVG Export Plug-In . SVG Version: 6.00 Build 0)  -->
<!DOCTYPE svg PUBLIC "-//W3C//DTD SVG 1.1//EN" "http://www.w3.org/Graphics/SVG/1.1/DTD/svg11.dtd">
<svg version="1.1" id="Layer_1" xmlns="http://www.w3.org/2000/svg" xmlns:xlink="http://www.w3.org/1999/xlink" x="0px" y="0px"
	 width="81.102px" height="48.739px" viewBox="0 0 81.102 48.739" enable-background="new 0 0 81.102 48.739" xml:space="preserve">
<g>
	<path fill-rule="evenodd" clip-rule="evenodd" fill="#FFFFFF" d="M39.752,45.692c-0.061,0.055-0.088,0.067-0.094,0.086
		c-0.692,2.606-2.935,3.115-5.08,2.27c-0.907-0.357-1.685-1.043-2.534-1.559c-0.205-0.125-0.488-0.271-0.692-0.223
		c-2.28,0.547-3.894-0.103-5.104-2.209c-0.365-0.637-0.691-0.909-1.493-0.841c-2.068,0.175-3.618-0.995-4.358-3.196
		c-0.196-0.588-0.535-0.888-1.043-1.211c-0.969-0.615-1.944-1.29-2.713-2.128c-1.053-1.148-1.277-2.599-0.765-4.093
		c0.158-0.462,0.033-0.672-0.335-0.934c-4.884-3.47-9.755-6.957-14.628-10.438c-1.067-0.763-1.166-1.253-0.462-2.324
		C4.394,12.901,8.337,6.908,12.282,0.917c0.729-1.108,1.237-1.156,2.356-0.44c2.397,1.53,4.823,3.016,7.257,4.487
		c0.24,0.145,0.672,0.185,0.924,0.071c3.793-1.707,7.813-2.557,11.879-3.272c1.697-0.299,3.362-0.767,5.048-1.127
		c2.057-0.443,4.094-0.392,6.011,0.55c3.817,1.876,7.616,3.789,11.404,5.724c0.52,0.267,0.919,0.288,1.45,0.076
		c4.247-1.692,8.506-3.354,12.761-5.027c1.233-0.484,1.755-0.252,2.198,0.967c2.44,6.715,4.88,13.428,7.318,20.141
		c0.421,1.156,0.26,1.553-0.864,2.115c-4.17,2.089-8.34,4.182-12.521,6.251c-0.439,0.218-0.622,0.444-0.631,0.961
		c-0.05,2.928-1.897,4.851-4.832,5.071c-0.343,0.025-0.559,0.051-0.661,0.481c-0.62,2.563-2.363,3.896-4.888,4.306
		c-0.348,0.058-0.561,0.138-0.693,0.511c-0.862,2.417-2.67,3.538-5.163,3.619c-0.535,0.017-0.837,0.173-1.124,0.641
		c-0.865,1.417-2.46,1.969-4.316,1.612c-1.563-0.302-2.884-1.078-4.132-2.022C40.634,46.287,40.182,45.993,39.752,45.692z
		 M42.929,11.935c-0.639,0.072-1.269,0.188-1.899,0.203c-0.699,0.015-1.237,0.293-1.797,0.691c-1.016,0.727-2.049,1.477-3.178,1.986
		c-1.229,0.555-2.55,1.003-3.877,1.215c-1.797,0.286-3.448-0.304-4.512-1.831c-1.002-1.438-0.618-3.003,0.207-4.39
		c0.599-1.007,1.38-1.916,2.145-2.814c0.645-0.756,1.383-1.434,2.103-2.17c-0.094-0.014-0.156-0.043-0.211-0.03
		c-2.965,0.637-5.897,1.383-8.611,2.784c-0.605,0.313-1.143,0.352-1.737,0.013c-1.307-0.745-2.643-1.437-3.933-2.203
		c-1.268-0.753-2.494-1.573-3.775-2.387C10.208,8.544,6.572,14.07,2.916,19.627c4.836,3.453,9.594,6.851,14.346,10.246
		c2.085-2.479,4.477-2.827,7.069-0.27c3.334-2.046,5.566-1.136,6.707,1.932c2.945,0.091,3.77,0.568,5.323,3.037
		c0.118,0.19,0.347,0.345,0.561,0.436c2.115,0.898,3.448,3.151,3.203,5.421c-0.069,0.635-0.152,1.271-0.152,1.907
		c0,0.244,0.146,0.576,0.336,0.717c1.098,0.814,2.211,1.61,3.354,2.357c0.87,0.568,1.83,0.921,2.901,0.831
		c0.645-0.053,0.907-0.513,1.144-1.033c0.235-0.513-0.106-0.745-0.406-1.027c-1.028-0.97-2.052-1.944-3.076-2.918
		c-1.025-0.974-2.05-1.945-3.071-2.922c-0.384-0.365-0.558-0.854-0.306-1.299c0.19-0.337,0.593-0.732,0.928-0.76
		c0.408-0.033,0.938,0.193,1.251,0.483c2.326,2.149,4.614,4.342,6.912,6.524c0.765,0.726,1.062,0.776,2.047,0.354
		c0.716-0.308,1.148-0.857,1.443-1.56c0.19-0.455,0.139-0.761-0.247-1.122c-2.592-2.436-5.153-4.901-7.725-7.356
		c-0.165-0.158-0.341-0.31-0.478-0.488c-0.355-0.471-0.37-0.976-0.043-1.459c0.339-0.499,0.848-0.625,1.388-0.449
		c0.267,0.086,0.502,0.309,0.715,0.509c2.708,2.577,5.407,5.163,8.117,7.737c0.187,0.175,0.438,0.386,0.668,0.395
		c1.475,0.063,2.788-1.004,3.148-2.438c0.144-0.57,0.05-0.945-0.415-1.358c-2.727-2.424-5.417-4.885-8.117-7.337
		c-0.202-0.184-0.428-0.356-0.575-0.579c-0.343-0.512-0.324-1.043,0.083-1.512c0.391-0.449,0.905-0.526,1.431-0.29
		c0.261,0.118,0.479,0.343,0.697,0.541c2.838,2.57,5.672,5.146,8.512,7.713c0.182,0.164,0.383,0.363,0.604,0.417
		c1.463,0.351,2.925-0.641,3.162-2.159c0.038-0.26-0.073-0.636-0.256-0.822c-3.029-3.062-6.076-6.107-9.134-9.142
		c-0.249-0.245-0.577-0.447-0.904-0.572c-2.033-0.776-3.941-1.78-5.687-3.082c-1.944-1.449-3.573-3.18-4.642-5.384
		C43.439,13.236,43.205,12.596,42.929,11.935z M71.407,4.515c-0.346,0.134-0.618,0.236-0.891,0.344
		c-3.956,1.567-7.916,3.122-11.86,4.718c-0.724,0.292-1.302,0.233-1.993-0.126c-3.793-1.976-7.574-3.984-11.437-5.815
		c-3.279-1.555-6.459-0.871-9.24,1.247c-1.782,1.357-3.335,3.027-4.924,4.625c-0.531,0.533-0.935,1.24-1.247,1.936
		c-0.532,1.184-0.146,1.946,1.156,2.073c0.893,0.085,1.867-0.06,2.728-0.34c1.768-0.579,3.273-1.665,4.737-2.803
		c0.355-0.274,0.831-0.47,1.276-0.537c1.261-0.19,2.533-0.3,3.801-0.437c1.02-0.111,1.431,0.168,1.658,1.161
		c0.437,1.919,1.376,3.559,2.73,4.966c2.064,2.144,4.589,3.557,7.349,4.601c0.432,0.162,0.86,0.428,1.188,0.751
		c2.819,2.787,5.625,5.592,8.412,8.413c0.364,0.368,0.632,0.433,1.104,0.192c3.96-2.004,7.935-3.98,11.903-5.968
		c0.179-0.089,0.349-0.196,0.567-0.321C76.089,16.975,73.763,10.783,71.407,4.515z M25.136,40.704
		c0.09-0.546,0.148-1.066,0.264-1.574c0.499-2.181,1.642-4.03,2.979-5.782c0.155-0.204,0.343-0.471,0.335-0.7
		c-0.059-1.462-1.048-2.028-2.338-1.33c-1.801,0.975-2.997,2.477-3.712,4.384c-0.494,1.314-0.379,2.596,0.181,3.851
		C23.316,40.612,23.91,40.905,25.136,40.704z M32.934,42.36c0.142,0.632,0.136,1.354,0.455,1.877
		c0.572,0.941,1.524,1.479,2.626,1.678c0.881,0.16,1.272-0.186,1.331-1.078c0.096-1.521,0.18-3.043,0.347-4.556
		c0.077-0.682-0.081-1.257-0.402-1.817c-0.954-1.656-2.396-1.659-3.353,0C33.245,39.661,33.066,40.984,32.934,42.36z M33.859,35.088
		c-0.383-0.315-0.711-0.664-1.108-0.893c-0.646-0.374-1.64-0.271-2.032,0.2c-1.261,1.514-2.32,3.146-2.887,5.062
		c-0.494,1.672,0.02,3.068,1.247,4.188c0.302,0.272,0.91,0.206,1.378,0.295c0.05-0.331,0.146-0.665,0.143-0.997
		C30.558,39.901,31.057,37.087,33.859,35.088z M22.408,31.295c-1.075-1.289-2.032-1.309-3.028-0.047
		c-0.349,0.443-0.647,0.937-0.902,1.439c-0.772,1.519-0.159,2.971,1.502,3.576C20.344,34.387,21.261,32.776,22.408,31.295z"/>
</g>
</svg>
