<?xml version="1.0" encoding="utf-8"?>
<!-- Generator: Adobe Illustrator 18.0.0, SVG Export Plug-In . SVG Version: 6.00 Build 0)  -->
<!DOCTYPE svg PUBLIC "-//W3C//DTD SVG 1.1//EN" "http://www.w3.org/Graphics/SVG/1.1/DTD/svg11.dtd">
<svg version="1.1" id="Layer_1" xmlns="http://www.w3.org/2000/svg" xmlns:xlink="http://www.w3.org/1999/xlink" x="0px" y="0px"
	 viewBox="0 0 1280 1500" enable-background="new 0 0 1280 1500" xml:space="preserve">
<g>
	<path fill="#DFEFF7" d="M119.2,910.3c-30.8-2.1-57.5-12.3-80.1-32.9C14.4,854.8,0,826,0,791.1c0-145.9,0-293.8,0-439.7
		c0-65.7,49.3-117.1,115.1-121.2c4.1,0,6.2,0,10.3,0c197.2,0,394.5,0,589.7,0c59.6,0,106.8,37,121.2,94.5
		c2.1,10.3,2.1,20.5,2.1,30.8c0,24.7,0,49.3,0,74c4.1,0,8.2,0,12.3,0c49.3,0,96.6,0,145.9,0c43.1,0,78.1,18.5,102.7,53.4
		c53.4,80.1,106.8,158.2,158.2,238.3c14.4,20.5,20.5,43.1,20.5,69.9c0,78.1,0,156.1,0,234.2c0,69.9-51.4,121.2-119.2,123.3
		c-12.3,0-22.6,0-34.9,0c-8.2,0-10.3,2.1-14.4,10.3c-22.6,63.7-67.8,100.7-133.5,108.9c-74,8.2-143.8-37-168.5-108.9
		c-2.1-8.2-6.2-10.3-14.4-10.3c-63.7,0-125.3,0-189,0c-8.2,0-12.3,2.1-14.4,10.3c-20.5,65.7-82.2,108.9-150,108.9
		s-129.4-43.1-150-106.8c-4.1-10.3-8.2-12.3-18.5-12.3c-18.5,0-37,0-55.5-2.1c-57.5-10.3-96.6-59.6-96.6-117.1
		c0-34.9,0-71.9,0-106.8C119.2,918.5,119.2,914.4,119.2,910.3z M421.2,310.3c-98.6,0-195.2,0-293.8,0c-32.9,0-47.3,14.4-47.3,47.3
		c0,141.8,0,283.5,0,425.3c0,30.8,14.4,47.3,47.3,47.3c195.2,0,390.4,0,587.6,0c30.8,0,45.2-14.4,45.2-45.2c0-141.8,0-285.6,0-427.4
		c0-30.8-14.4-45.2-45.2-45.2C616.4,310.3,517.8,310.3,421.2,310.3z M840.3,511.7c0,6.2,0,10.3,0,14.4c0,86.3,0,172.6,0,258.9
		c0,10.3,0,20.5-2.1,30.8c-12.3,55.5-59.6,94.5-117.1,94.5c-168.5,0-337,0-505.4,0c-4.1,0-8.2,0-12.3,0c0,43.1,0,84.2,0,125.3
		c0,18.5,16.4,32.9,34.9,32.9c16.4,0,32.9,0,49.3,0c2.1-2.1,2.1-6.2,2.1-8.2c22.6-67.8,82.2-110.9,152-110.9s129.4,43.1,152,110.9
		c2.1,8.2,6.2,10.3,12.3,10.3c63.7,0,127.4,0,191.1,0c4.1,0,6.2,0,10.3,0c20.5-71.9,78.1-115.1,139.7-119.2
		c86.3-6.2,141.8,39,170.5,119.2c12.3,0,26.7,0,39,0c28.8,0,45.2-16.4,45.2-45.2c0-78.1,0-154.1,0-232.2c0-10.3-4.1-20.5-8.2-28.8
		c-51.4-78.1-102.7-154.1-154.1-232.2c-10.3-14.4-22.6-22.6-41.1-22.6c-47.3,0-96.6,0-143.8,0C846.5,509.6,844.4,509.6,840.3,511.7z
		 M439.7,1189.7c43.1,0,80.1-37,80.1-80.1c0-43.1-37-80.1-80.1-80.1s-80.1,37-80.1,80.1C359.6,1154.8,396.5,1189.7,439.7,1189.7z
		 M959.5,1189.7c45.2,0,80.1-34.9,80.1-80.1c0-43.1-34.9-80.1-80.1-80.1c-43.1,0-80.1,34.9-80.1,80.1
		C879.4,1152.7,914.3,1189.7,959.5,1189.7z"/>
	<path fill="#DFEFF7" d="M879.4,708.9c0-37,0-76,0-113c0-30.8,16.4-45.2,47.3-45.2c10.3,0,20.5,0,32.9,0c14.4,0,26.7,6.2,34.9,18.5
		c39,59.6,80.1,119.2,119.2,178.7c4.1,6.2,6.2,16.4,8.2,24.7c2.1,18.5,0,37,0,55.5c0,24.7-16.4,41.1-41.1,41.1
		c-51.4,0-102.7,0-156.1,0c-26.7,0-43.1-16.4-43.1-43.1C879.4,787,879.4,747.9,879.4,708.9z M920.4,589.7c0,80.1,0,160.3,0,238.3
		c53.4,0,104.8,0,158.2,0c0-18.5,0-39,0-57.5c0-2.1-2.1-6.2-4.1-8.2c-37-55.5-74-113-113-168.5c-2.1-2.1-6.2-6.2-8.2-6.2
		C943,589.7,932.8,589.7,920.4,589.7z"/>
</g>
</svg>
